<svg version="1.1" xmlns="http://www.w3.org/2000/svg" viewBox="0 0 133 100.91656404049138" width="133" height="100.91656404049138">
  <!-- svg-source:excalidraw -->
  
  <defs>
    <style class="style-fonts">
      @font-face {
        font-family: "Virgil";
        src: url("https://excalidraw.com/Virgil.woff2");
      }
      @font-face {
        font-family: "Cascadia";
        src: url("https://excalidraw.com/Cascadia.woff2");
      }
      @font-face {
        font-family: "Assistant";
        src: url("https://excalidraw.com/Assistant-Regular.woff2");
      }
    </style>
    
  </defs>
  <g stroke-linecap="round" transform="translate(44.5 22.41656404049138) rotate(0 29 25.5)"><path d="M23.57 0.08 C29.3 -1.29, 36.65 1.13, 42.11 3.85 C47.56 6.57, 53.85 11.46, 56.29 16.39 C58.73 21.33, 58.87 28.34, 56.76 33.46 C54.65 38.58, 48.94 44.23, 43.64 47.11 C38.33 50, 31.02 51.53, 24.93 50.78 C18.84 50.03, 11.08 46.82, 7.08 42.6 C3.08 38.38, 0.93 30.98, 0.93 25.47 C0.93 19.97, 3.2 13.85, 7.08 9.57 C10.97 5.29, 20.92 1.15, 24.24 -0.2 C27.56 -1.56, 26.89 0.85, 27.02 1.45 M38.61 0.99 C44.02 2.51, 50.53 8.06, 53.56 12.94 C56.6 17.81, 57.68 24.57, 56.82 30.24 C55.96 35.91, 53.34 43.37, 48.38 46.95 C43.41 50.53, 33.5 52.31, 27.03 51.74 C20.55 51.17, 13.8 47.4, 9.53 43.51 C5.25 39.62, 2.1 33.54, 1.38 28.42 C0.67 23.3, 2.01 17.26, 5.24 12.8 C8.47 8.34, 14.98 3.58, 20.74 1.66 C26.49 -0.27, 36.6 1.28, 39.78 1.23 C42.96 1.19, 39.94 0.76, 39.82 1.38" stroke="none" stroke-width="0" fill="#ffd43b"></path><path d="M24.17 0.63 C29.96 -0.48, 39.33 0.01, 44.66 2.8 C50 5.59, 54.42 12.02, 56.19 17.35 C57.96 22.67, 57.65 29.61, 55.29 34.77 C52.92 39.93, 47.21 45.61, 41.99 48.31 C36.77 51.01, 29.82 52.24, 23.96 51 C18.11 49.76, 10.82 45.24, 6.87 40.87 C2.93 36.5, 0.24 30.13, 0.3 24.78 C0.36 19.42, 2.82 12.97, 7.24 8.74 C11.67 4.51, 23.37 0.75, 26.83 -0.62 C30.3 -1.98, 27.99 0.13, 28.02 0.52 M28.19 -0.44 C34.06 -0.62, 43.02 2.78, 48.08 6.47 C53.14 10.16, 57.48 16.14, 58.53 21.71 C59.58 27.29, 57.72 35.51, 54.38 39.92 C51.04 44.33, 44.48 46.81, 38.48 48.16 C32.48 49.5, 23.98 49.55, 18.36 47.97 C12.74 46.4, 7.54 43.24, 4.77 38.69 C1.99 34.14, 0.66 26.01, 1.73 20.67 C2.81 15.33, 6.54 10.04, 11.23 6.66 C15.92 3.27, 27 1.24, 29.87 0.34 C32.73 -0.55, 28.41 1.13, 28.43 1.29" stroke="#1e1e1e" stroke-width="2" fill="none"></path></g><g stroke-linecap="round"><g transform="translate(96.5 29.41656404049138) rotate(0 6 -3.5)"><path d="M-0.51 -0.21 C1.55 -1.36, 10.17 -5.48, 12.18 -6.64 M0.23 -0.79 C2.24 -2.13, 9.78 -6.45, 11.84 -7.42" stroke="#1e1e1e" stroke-width="2" fill="none"></path></g></g><mask></mask><g stroke-linecap="round"><g transform="translate(103.5 46.41656404049138) rotate(0 8.5 1)"><path d="M0.18 0.36 C3.02 0.7, 13.7 1.65, 16.52 1.86 M-0.39 0.07 C2.65 0.51, 14.65 2.17, 17.5 2.49" stroke="#1e1e1e" stroke-width="2" fill="none"></path></g></g><mask></mask><g stroke-linecap="round"><g transform="translate(66.5 22.41656404049138) rotate(0 -2 -6)"><path d="M-0.48 -0.14 C-1.17 -2.27, -3.38 -10.35, -3.96 -12.42 M0.27 -0.69 C-0.5 -2.79, -3.61 -10.01, -4.37 -11.93" stroke="#1e1e1e" stroke-width="2" fill="none"></path></g></g><mask></mask><g stroke-linecap="round"><g transform="translate(49.5 32.41656404049138) rotate(0 -12 -1)"><path d="M0.04 -0.42 C-3.87 -0.82, -20 -2.34, -23.96 -2.55 M-0.6 0.56 C-4.54 0.22, -20.48 -1.61, -24.37 -2.13" stroke="#1e1e1e" stroke-width="2" fill="none"></path></g></g><mask></mask><g stroke-linecap="round"><g transform="translate(49.5 57.41656404049138) rotate(0 -7.5 4.5)"><path d="M0.04 -0.55 C-2.43 1.07, -12.28 7.68, -14.74 9.32 M-0.61 0.36 C-3.12 1.86, -12.65 7.19, -15.04 8.52" stroke="#1e1e1e" stroke-width="2" fill="none"></path></g></g><mask></mask><g stroke-linecap="round"><g transform="translate(65.5 70.41656404049138) rotate(0 -4 6)"><path d="M0.26 0.32 C-1.04 2.45, -6.3 10.28, -7.73 12.25 M-0.27 0.01 C-1.62 2.02, -6.87 9.56, -8.03 11.42" stroke="#1e1e1e" stroke-width="2" fill="none"></path></g></g><mask></mask><g stroke-linecap="round"><g transform="translate(90.5 69.41656404049138) rotate(0 1.5 6.5)"><path d="M0.27 0.25 C0.67 2.39, 2.22 11.03, 2.66 13.16 M-0.26 -0.09 C0.29 1.85, 3.26 9.99, 3.71 12.28" stroke="#1e1e1e" stroke-width="2" fill="none"></path></g></g><mask></mask><g transform="translate(12 54.91656404049138) rotate(0 54.5 11.5)" stroke="none"><path d="M0 0 C0.33 -1.17, 1.33 -5.5, 2 -7 C2.67 -8.5, 3.17 -8.33, 4 -9 C4.83 -9.67, 4.67 -10.33, 7 -11 C9.33 -11.67, 15.5 -12.83, 18 -13 C20.5 -13.17, 20.83 -12.83, 22 -12 C23.17 -11.17, 24.33 -9.33, 25 -8 C25.67 -6.67, 24.33 -4.5, 26 -4 C27.67 -3.5, 33.5 -4.67, 35 -5 C36.5 -5.33, 33.67 -5.5, 35 -6 C36.33 -6.5, 40.33 -7.67, 43 -8 C45.67 -8.33, 49 -8.67, 51 -8 C53 -7.33, 54.33 -5.17, 55 -4 C55.67 -2.83, 54.5 -1.5, 55 -1 C55.5 -0.5, 56.67 -0.33, 58 -1 C59.33 -1.67, 61 -3.83, 63 -5 C65 -6.17, 68.67 -7.17, 70 -8 C71.33 -8.83, 70.17 -9.5, 71 -10 C71.83 -10.5, 73.17 -10.83, 75 -11 C76.83 -11.17, 80 -12.33, 82 -11 C84 -9.67, 85.67 -4.33, 87 -3 C88.33 -1.67, 87.33 -1.83, 90 -3 C92.67 -4.17, 100.17 -8.83, 103 -10 C105.83 -11.17, 106.33 -10.17, 107 -10 C107.67 -9.83, 106.33 -9.5, 107 -9 C107.67 -8.5, 110.33 -11.33, 111 -7 C111.67 -2.67, 111.17 13, 111 17 C110.83 21, 110.83 16, 110 17 C109.17 18, 107.5 21.5, 106 23 C104.5 24.5, 102.33 25.5, 101 26 C99.67 26.5, 99 25.83, 98 26 C97 26.17, 95.5 26.67, 95 27 C94.5 27.33, 96 27.83, 95 28 C94 28.17, 90.17 27.67, 89 28 C87.83 28.33, 89.67 29.33, 88 30 C86.33 30.67, 81 31.17, 79 32 C77 32.83, 76.83 34.5, 76 35 C75.17 35.5, 75.67 36, 74 35 C72.33 34, 67.83 30, 66 29 C64.17 28, 65.5 28.5, 63 29 C60.5 29.5, 54.17 30.83, 51 32 C47.83 33.17, 45.5 35.33, 44 36 C42.5 36.67, 42.83 36.17, 42 36 C41.17 35.83, 41.67 37.33, 39 35 C36.33 32.67, 30.83 24.17, 26 22 C21.17 19.83, 13.17 22.33, 10 22 C6.83 21.67, 8.83 21.83, 7 20 C5.17 18.17, 0.33 12.83, -1 11 C-2.33 9.17, -0.83 9.33, -1 9 C-1.17 8.67, -1.83 10, -2 9 C-2.17 8, -2.17 4.5, -2 3 C-1.83 1.5, -1.33 0.5, -1 0 C-0.67 -0.5, -0.17 0, 0 0" stroke="none" stroke-width="0" fill="#ffffff" fill-rule="evenodd"></path><path fill="#1e1e1e" d="M -2.42,-0.97 Q -2.42,-0.97 -1.82,-2.39 -1.22,-3.81 -0.59,-5.91 0.02,-8.01 1.47,-9.54 2.92,-11.07 4.54,-12.28 6.17,-13.50 7.31,-13.88 8.44,-14.27 9.73,-14.49 11.02,-14.72 12.49,-14.87 13.95,-15.02 15.66,-15.44 17.36,-15.85 19.62,-15.56 21.88,-15.27 23.11,-14.21 24.34,-13.15 25.43,-12.05 26.53,-10.95 27.07,-10.00 27.60,-9.06 28.24,-7.90 28.87,-6.74 30.61,-7.38 32.36,-8.02 33.38,-8.48 34.40,-8.94 35.66,-9.09 36.93,-9.24 38.11,-9.68 39.29,-10.12 40.79,-10.59 42.30,-11.05 43.99,-11.18 45.68,-11.31 46.91,-11.34 48.14,-11.38 50.37,-10.89 52.59,-10.40 53.70,-9.26 54.81,-8.13 56.36,-6.08 57.90,-4.02 60.43,-5.86 62.96,-7.70 64.74,-8.40 66.53,-9.10 68.58,-10.45 70.63,-11.80 72.82,-12.57 75.02,-13.33 76.49,-13.54 77.96,-13.75 79.64,-13.73 81.31,-13.71 82.71,-12.84 84.11,-11.98 85.25,-10.90 86.40,-9.82 86.99,-8.88 87.58,-7.93 88.19,-6.84 88.80,-5.74 89.79,-6.45 90.77,-7.15 92.11,-7.75 93.45,-8.34 94.70,-8.95 95.94,-9.55 97.71,-10.29 99.49,-11.02 100.85,-11.77 102.21,-12.52 103.35,-12.69 104.48,-12.86 105.58,-12.78 106.67,-12.69 107.65,-12.18 108.62,-11.68 109.66,-11.28 110.69,-10.89 112.23,-9.37 113.77,-7.84 114.02,-6.04 114.28,-4.24 114.28,-2.34 114.28,-0.43 114.28,1.26 114.28,2.95 114.29,4.36 114.31,5.78 114.32,6.97 114.34,8.17 114.35,9.61 114.36,11.06 114.37,12.14 114.39,13.22 114.22,15.04 114.05,16.87 113.41,17.98 112.77,19.08 112.06,20.17 111.35,21.26 110.45,22.45 109.56,23.63 108.39,24.66 107.22,25.70 106.24,26.19 105.26,26.68 103.59,27.78 101.93,28.88 100.73,29.06 99.52,29.24 97.21,30.10 94.90,30.96 93.76,31.07 92.62,31.17 90.87,31.92 89.12,32.66 87.89,32.88 86.66,33.10 85.52,33.52 84.38,33.93 82.99,34.21 81.59,34.49 80.27,35.60 78.95,36.70 76.80,37.21 74.64,37.72 72.75,36.68 70.85,35.64 69.78,35.10 68.71,34.56 67.68,33.91 66.66,33.27 65.41,32.75 64.15,32.23 62.95,32.35 61.75,32.48 59.80,32.91 57.86,33.34 55.92,33.60 53.98,33.86 52.25,34.40 50.53,34.94 49.37,35.32 48.21,35.70 47.28,36.50 46.36,37.29 44.73,37.89 43.11,38.49 41.48,38.21 39.86,37.93 38.86,37.31 37.87,36.68 36.75,35.92 35.63,35.16 34.30,33.75 32.96,32.34 31.81,31.67 30.65,30.99 29.58,30.03 28.51,29.07 27.88,28.01 27.26,26.95 25.96,26.09 24.66,25.23 22.02,25.16 19.38,25.09 17.55,24.94 15.72,24.79 14.36,24.77 13.00,24.75 10.30,24.03 7.59,23.32 5.68,21.25 3.77,19.17 2.29,17.50 0.82,15.82 -0.16,14.89 -1.15,13.95 -1.78,13.07 -2.42,12.19 -3.31,10.85 -4.21,9.51 -4.46,8.19 -4.71,6.86 -4.78,5.32 -4.84,3.78 -4.44,2.62 -4.04,1.47 -2.88,-0.48 -1.71,-2.45 -1.27,-2.66 -0.84,-2.87 -0.36,-2.92 0.11,-2.98 0.59,-2.89 1.06,-2.79 1.48,-2.55 1.90,-2.30 2.22,-1.94 2.54,-1.57 2.72,-1.13 2.91,-0.68 2.94,-0.20 2.97,0.28 2.85,0.74 2.73,1.21 2.46,1.62 2.20,2.02 1.82,2.32 1.43,2.62 0.98,2.78 0.52,2.94 0.04,2.95 -0.44,2.95 -0.90,2.81 -1.36,2.66 -1.75,2.37 -2.14,2.08 -2.41,1.69 -2.69,1.29 -2.83,0.83 -2.96,0.36 -2.94,-0.11 -2.93,-0.60 -2.75,-1.05 -2.58,-1.50 -2.27,-1.87 -1.96,-2.25 -1.55,-2.50 -1.14,-2.76 -0.67,-2.87 -0.20,-2.98 0.27,-2.93 0.75,-2.89 1.20,-2.69 1.64,-2.49 1.99,-2.17 2.35,-1.84 2.58,-1.41 2.82,-0.99 2.90,-0.51 2.99,-0.04 2.91,0.43 2.84,0.91 2.62,1.34 2.40,1.77 2.06,2.11 1.71,2.45 1.71,2.45 1.71,2.45 1.28,3.78 0.84,5.10 0.48,6.29 0.12,7.47 1.05,9.17 1.98,10.87 2.90,11.85 3.82,12.83 5.50,14.31 7.17,15.79 8.60,17.08 10.04,18.38 11.53,18.82 13.02,19.26 14.39,19.25 15.76,19.24 17.63,19.12 19.51,19.00 21.25,18.93 22.98,18.86 24.46,18.94 25.93,19.03 27.99,20.16 30.05,21.29 31.02,21.89 31.99,22.49 32.61,24.07 33.23,25.64 34.62,26.63 36.02,27.63 37.34,28.94 38.66,30.25 39.66,30.92 40.65,31.59 41.79,32.44 42.94,33.29 43.96,32.80 44.97,32.32 47.03,31.66 49.09,31.00 51.16,30.15 53.24,29.31 54.84,29.01 56.44,28.71 58.76,27.82 61.08,26.94 63.14,26.68 65.20,26.42 66.94,26.91 68.67,27.39 69.95,28.35 71.22,29.31 73.09,30.53 74.95,31.75 76.08,31.21 77.21,30.67 79.63,29.45 82.04,28.22 84.49,27.41 86.95,26.60 88.41,25.72 89.88,24.83 91.83,24.79 93.78,24.75 94.79,24.07 95.80,23.39 97.30,22.95 98.81,22.50 99.82,22.09 100.83,21.68 102.36,20.83 103.89,19.99 104.95,18.50 106.01,17.01 106.81,15.91 107.60,14.82 107.61,13.49 107.62,12.17 107.63,10.98 107.65,9.79 107.66,8.42 107.67,7.05 107.68,5.59 107.68,4.13 107.70,2.84 107.72,1.55 107.69,-0.36 107.66,-2.28 108.20,-3.46 108.74,-4.65 107.61,-5.42 106.47,-6.19 105.27,-6.54 104.08,-6.89 102.93,-6.34 101.78,-5.79 100.10,-5.20 98.42,-4.61 97.21,-3.97 96.00,-3.34 94.27,-2.37 92.55,-1.40 90.29,-0.78 88.04,-0.17 86.20,-0.83 84.36,-1.50 83.54,-2.60 82.72,-3.70 82.31,-4.68 81.89,-5.66 81.10,-6.96 80.30,-8.26 78.78,-8.21 77.25,-8.15 75.91,-8.06 74.56,-7.96 72.83,-7.39 71.10,-6.83 69.82,-5.78 68.53,-4.73 66.99,-3.96 65.45,-3.20 63.73,-2.02 62.02,-0.84 59.51,0.63 57.01,2.11 55.33,1.78 53.65,1.45 52.76,0.37 51.87,-0.70 51.33,-1.62 50.79,-2.55 49.50,-3.58 48.20,-4.60 47.05,-4.60 45.89,-4.60 44.36,-4.49 42.82,-4.37 41.37,-4.01 39.92,-3.65 38.37,-3.44 36.83,-3.24 35.86,-2.63 34.90,-2.01 33.30,-1.75 31.70,-1.49 29.98,-1.17 28.26,-0.85 26.56,-1.17 24.86,-1.48 23.84,-3.16 22.82,-4.84 21.86,-6.25 20.90,-7.66 20.08,-8.74 19.27,-9.82 18.20,-9.71 17.13,-9.61 15.17,-9.24 13.20,-8.88 11.78,-8.75 10.37,-8.63 8.73,-7.90 7.09,-7.17 5.63,-5.93 4.17,-4.70 3.84,-3.31 3.52,-1.93 2.97,-0.48 2.42,0.97 2.27,1.24 2.12,1.52 1.91,1.75 1.69,1.98 1.43,2.16 1.17,2.33 0.87,2.44 0.57,2.55 0.26,2.58 -0.04,2.61 -0.35,2.57 -0.67,2.52 -0.96,2.41 -1.25,2.29 -1.51,2.10 -1.76,1.92 -1.97,1.68 -2.17,1.44 -2.32,1.16 -2.46,0.88 -2.53,0.57 -2.60,0.26 -2.59,-0.04 -2.58,-0.36 -2.50,-0.66 -2.42,-0.97 -2.42,-0.97 L -2.42,-0.97 Z"></path></g></svg>