<svg version="1.1" xmlns="http://www.w3.org/2000/svg" viewBox="0 0 78 71" width="78" height="71">
  <!-- svg-source:excalidraw -->
  
  <defs>
    <style class="style-fonts">
      @font-face {
        font-family: "Virgil";
        src: url("https://excalidraw.com/Virgil.woff2");
      }
      @font-face {
        font-family: "Cascadia";
        src: url("https://excalidraw.com/Cascadia.woff2");
      }
      @font-face {
        font-family: "Assistant";
        src: url("https://excalidraw.com/Assistant-Regular.woff2");
      }
    </style>
    
  </defs>
  <g stroke-linecap="round" transform="translate(10 10.000000000000014) rotate(0 29 25.499999999999993)"><path d="M32.21 -0.26 C38.31 -0.25, 46.29 2.9, 50.57 6.73 C54.84 10.56, 57.38 17.22, 57.84 22.71 C58.3 28.21, 57.1 35.28, 53.33 39.71 C49.56 44.13, 41.34 47.81, 35.21 49.28 C29.08 50.75, 22.09 50.83, 16.54 48.54 C10.99 46.25, 4.61 40.43, 1.91 35.54 C-0.78 30.65, -1.41 24.49, 0.37 19.22 C2.14 13.95, 7.15 7.13, 12.55 3.93 C17.95 0.73, 29.15 0.57, 32.78 0.03 C36.4 -0.51, 34.2 0.12, 34.3 0.71 M17.14 2.1 C22.37 -0.71, 31.04 -1.73, 37.14 -0.46 C43.25 0.82, 50.22 5.16, 53.75 9.74 C57.28 14.31, 58.95 21.39, 58.31 27 C57.67 32.6, 54.24 39.34, 49.91 43.37 C45.57 47.39, 38.54 50.6, 32.32 51.15 C26.09 51.71, 17.64 50.09, 12.58 46.69 C7.52 43.29, 3.52 36.22, 1.95 30.74 C0.37 25.26, 0.83 18.47, 3.13 13.81 C5.43 9.15, 13.33 4.71, 15.77 2.79 C18.21 0.87, 17.34 2.03, 17.75 2.3" stroke="none" stroke-width="0" fill="#ced4da"></path><path d="M26.06 0.98 C31.78 0.2, 40.64 0.96, 45.65 3.85 C50.67 6.74, 54.51 13.03, 56.15 18.31 C57.78 23.6, 57.81 30.37, 55.46 35.56 C53.11 40.75, 47.67 46.94, 42.04 49.45 C36.42 51.96, 27.91 52.12, 21.71 50.6 C15.51 49.08, 8.59 44.87, 4.83 40.33 C1.08 35.79, -1.44 28.93, -0.8 23.34 C-0.16 17.75, 3.68 10.55, 8.69 6.79 C13.7 3.03, 25.7 1.8, 29.26 0.77 C32.82 -0.26, 30.28 0.32, 30.04 0.6 M37.45 0.35 C43.19 1.59, 49.1 5.9, 52.32 10.77 C55.54 15.63, 57.53 23.77, 56.77 29.53 C56.02 35.29, 52.04 41.69, 47.81 45.31 C43.58 48.92, 37.64 50.93, 31.38 51.2 C25.13 51.48, 15.26 50.21, 10.3 46.97 C5.35 43.73, 2.61 37.29, 1.65 31.78 C0.69 26.27, 1.6 18.9, 4.54 13.9 C7.47 8.91, 13.72 3.77, 19.24 1.83 C24.76 -0.11, 34.69 2.28, 37.67 2.27 C40.65 2.26, 37.37 1.66, 37.12 1.78" stroke="#1e1e1e" stroke-width="2" fill="none"></path></g><g stroke-linecap="round" transform="translate(30.333556203485387 49.83562631821178) rotate(0 4.744031171209826 2.1084582983154974)"><path d="M9.49 2.11 C9.49 2.23, 9.46 2.35, 9.42 2.47 C9.37 2.59, 9.3 2.71, 9.2 2.83 C9.11 2.94, 8.99 3.06, 8.85 3.16 C8.72 3.27, 8.55 3.37, 8.38 3.46 C8.2 3.56, 8 3.65, 7.79 3.72 C7.58 3.8, 7.35 3.87, 7.12 3.93 C6.88 4, 6.62 4.05, 6.37 4.09 C6.11 4.13, 5.84 4.16, 5.57 4.18 C5.3 4.21, 5.02 4.22, 4.74 4.22 C4.47 4.22, 4.19 4.21, 3.92 4.18 C3.65 4.16, 3.38 4.13, 3.12 4.09 C2.86 4.05, 2.61 4, 2.37 3.93 C2.13 3.87, 1.9 3.8, 1.69 3.72 C1.48 3.65, 1.29 3.56, 1.11 3.46 C0.93 3.37, 0.77 3.27, 0.64 3.16 C0.5 3.06, 0.38 2.94, 0.29 2.83 C0.19 2.71, 0.12 2.59, 0.07 2.47 C0.02 2.35, 0 2.23, 0 2.11 C0 1.99, 0.02 1.86, 0.07 1.74 C0.12 1.62, 0.19 1.5, 0.29 1.39 C0.38 1.27, 0.5 1.16, 0.64 1.05 C0.77 0.95, 0.93 0.85, 1.11 0.75 C1.29 0.66, 1.48 0.57, 1.69 0.49 C1.9 0.41, 2.13 0.34, 2.37 0.28 C2.61 0.22, 2.86 0.17, 3.12 0.13 C3.38 0.09, 3.65 0.05, 3.92 0.03 C4.19 0.01, 4.47 0, 4.74 0 C5.02 0, 5.3 0.01, 5.57 0.03 C5.84 0.05, 6.11 0.09, 6.37 0.13 C6.62 0.17, 6.88 0.22, 7.12 0.28 C7.35 0.34, 7.58 0.41, 7.79 0.49 C8 0.57, 8.2 0.66, 8.38 0.75 C8.55 0.85, 8.72 0.95, 8.85 1.05 C8.99 1.16, 9.11 1.27, 9.2 1.39 C9.3 1.5, 9.37 1.62, 9.42 1.74 C9.46 1.86, 9.48 2.05, 9.49 2.11 C9.5 2.17, 9.5 2.05, 9.49 2.11" stroke="none" stroke-width="0" fill="#868e96"></path><path d="M9.49 2.11 C9.49 2.23, 9.46 2.35, 9.42 2.47 C9.37 2.59, 9.3 2.71, 9.2 2.83 C9.11 2.94, 8.99 3.06, 8.85 3.16 C8.72 3.27, 8.55 3.37, 8.38 3.46 C8.2 3.56, 8 3.65, 7.79 3.72 C7.58 3.8, 7.35 3.87, 7.12 3.93 C6.88 4, 6.62 4.05, 6.37 4.09 C6.11 4.13, 5.84 4.16, 5.57 4.18 C5.3 4.21, 5.02 4.22, 4.74 4.22 C4.47 4.22, 4.19 4.21, 3.92 4.18 C3.65 4.16, 3.38 4.13, 3.12 4.09 C2.86 4.05, 2.61 4, 2.37 3.93 C2.13 3.87, 1.9 3.8, 1.69 3.72 C1.48 3.65, 1.29 3.56, 1.11 3.46 C0.93 3.37, 0.77 3.27, 0.64 3.16 C0.5 3.06, 0.38 2.94, 0.29 2.83 C0.19 2.71, 0.12 2.59, 0.07 2.47 C0.02 2.35, 0 2.23, 0 2.11 C0 1.99, 0.02 1.86, 0.07 1.74 C0.12 1.62, 0.19 1.5, 0.29 1.39 C0.38 1.27, 0.5 1.16, 0.64 1.05 C0.77 0.95, 0.93 0.85, 1.11 0.75 C1.29 0.66, 1.48 0.57, 1.69 0.49 C1.9 0.41, 2.13 0.34, 2.37 0.28 C2.61 0.22, 2.86 0.17, 3.12 0.13 C3.38 0.09, 3.65 0.05, 3.92 0.03 C4.19 0.01, 4.47 0, 4.74 0 C5.02 0, 5.3 0.01, 5.57 0.03 C5.84 0.05, 6.11 0.09, 6.37 0.13 C6.62 0.17, 6.88 0.22, 7.12 0.28 C7.35 0.34, 7.58 0.41, 7.79 0.49 C8 0.57, 8.2 0.66, 8.38 0.75 C8.55 0.85, 8.72 0.95, 8.85 1.05 C8.99 1.16, 9.11 1.27, 9.2 1.39 C9.3 1.5, 9.37 1.62, 9.42 1.74 C9.46 1.86, 9.48 2.05, 9.49 2.11 C9.5 2.17, 9.5 2.05, 9.49 2.11" stroke="#1e1e1e" stroke-width="1" fill="none"></path></g><g stroke-linecap="round" transform="translate(52.47236833579814 23.47989758926809) rotate(0 3.6898020220520493 2.6355728728943575)"><path d="M7.38 2.64 C7.38 2.79, 7.36 2.94, 7.32 3.09 C7.29 3.24, 7.23 3.39, 7.16 3.54 C7.08 3.68, 6.99 3.82, 6.89 3.95 C6.78 4.09, 6.65 4.21, 6.52 4.33 C6.38 4.45, 6.23 4.56, 6.06 4.65 C5.9 4.75, 5.72 4.84, 5.53 4.92 C5.35 4.99, 5.15 5.06, 4.95 5.11 C4.75 5.16, 4.54 5.2, 4.33 5.23 C4.12 5.26, 3.9 5.27, 3.69 5.27 C3.48 5.27, 3.26 5.26, 3.05 5.23 C2.84 5.2, 2.63 5.16, 2.43 5.11 C2.23 5.06, 2.03 4.99, 1.84 4.92 C1.66 4.84, 1.48 4.75, 1.32 4.65 C1.15 4.56, 1 4.45, 0.86 4.33 C0.73 4.21, 0.6 4.09, 0.49 3.95 C0.39 3.82, 0.3 3.68, 0.22 3.54 C0.15 3.39, 0.09 3.24, 0.06 3.09 C0.02 2.94, 0 2.79, 0 2.64 C0 2.48, 0.02 2.33, 0.06 2.18 C0.09 2.03, 0.15 1.88, 0.22 1.73 C0.3 1.59, 0.39 1.45, 0.49 1.32 C0.6 1.19, 0.73 1.06, 0.86 0.94 C1 0.82, 1.15 0.71, 1.32 0.62 C1.48 0.52, 1.66 0.43, 1.84 0.35 C2.03 0.28, 2.23 0.21, 2.43 0.16 C2.63 0.11, 2.84 0.07, 3.05 0.04 C3.26 0.01, 3.48 0, 3.69 0 C3.9 0, 4.12 0.01, 4.33 0.04 C4.54 0.07, 4.75 0.11, 4.95 0.16 C5.15 0.21, 5.35 0.28, 5.53 0.35 C5.72 0.43, 5.9 0.52, 6.06 0.62 C6.23 0.71, 6.38 0.82, 6.52 0.94 C6.65 1.06, 6.78 1.19, 6.89 1.32 C6.99 1.45, 7.08 1.59, 7.16 1.73 C7.23 1.88, 7.29 2.03, 7.32 2.18 C7.36 2.33, 7.37 2.56, 7.38 2.64 C7.39 2.71, 7.39 2.56, 7.38 2.64" stroke="none" stroke-width="0" fill="#868e96"></path><path d="M7.38 2.64 C7.38 2.79, 7.36 2.94, 7.32 3.09 C7.29 3.24, 7.23 3.39, 7.16 3.54 C7.08 3.68, 6.99 3.82, 6.89 3.95 C6.78 4.09, 6.65 4.21, 6.52 4.33 C6.38 4.45, 6.23 4.56, 6.06 4.65 C5.9 4.75, 5.72 4.84, 5.53 4.92 C5.35 4.99, 5.15 5.06, 4.95 5.11 C4.75 5.16, 4.54 5.2, 4.33 5.23 C4.12 5.26, 3.9 5.27, 3.69 5.27 C3.48 5.27, 3.26 5.26, 3.05 5.23 C2.84 5.2, 2.63 5.16, 2.43 5.11 C2.23 5.06, 2.03 4.99, 1.84 4.92 C1.66 4.84, 1.48 4.75, 1.32 4.65 C1.15 4.56, 1 4.45, 0.86 4.33 C0.73 4.21, 0.6 4.09, 0.49 3.95 C0.39 3.82, 0.3 3.68, 0.22 3.54 C0.15 3.39, 0.09 3.24, 0.06 3.09 C0.02 2.94, 0 2.79, 0 2.64 C0 2.48, 0.02 2.33, 0.06 2.18 C0.09 2.03, 0.15 1.88, 0.22 1.73 C0.3 1.59, 0.39 1.45, 0.49 1.32 C0.6 1.19, 0.73 1.06, 0.86 0.94 C1 0.82, 1.15 0.71, 1.32 0.62 C1.48 0.52, 1.66 0.43, 1.84 0.35 C2.03 0.28, 2.23 0.21, 2.43 0.16 C2.63 0.11, 2.84 0.07, 3.05 0.04 C3.26 0.01, 3.48 0, 3.69 0 C3.9 0, 4.12 0.01, 4.33 0.04 C4.54 0.07, 4.75 0.11, 4.95 0.16 C5.15 0.21, 5.35 0.28, 5.53 0.35 C5.72 0.43, 5.9 0.52, 6.06 0.62 C6.23 0.71, 6.38 0.82, 6.52 0.94 C6.65 1.06, 6.78 1.19, 6.89 1.32 C6.99 1.45, 7.08 1.59, 7.16 1.73 C7.23 1.88, 7.29 2.03, 7.32 2.18 C7.36 2.33, 7.37 2.56, 7.38 2.64 C7.39 2.71, 7.39 2.56, 7.38 2.64" stroke="#1e1e1e" stroke-width="1" fill="none"></path></g><g stroke-linecap="round" transform="translate(24.00818130853895 19.262980992637097) rotate(0 4.744031171209826 3.689802022052106)"><path d="M9.49 3.69 C9.49 3.9, 9.46 4.12, 9.42 4.33 C9.37 4.54, 9.3 4.75, 9.2 4.95 C9.11 5.15, 8.99 5.35, 8.85 5.53 C8.72 5.72, 8.55 5.9, 8.38 6.06 C8.2 6.23, 8 6.38, 7.79 6.52 C7.58 6.65, 7.35 6.78, 7.12 6.89 C6.88 6.99, 6.62 7.08, 6.37 7.16 C6.11 7.23, 5.84 7.29, 5.57 7.32 C5.3 7.36, 5.02 7.38, 4.74 7.38 C4.47 7.38, 4.19 7.36, 3.92 7.32 C3.65 7.29, 3.38 7.23, 3.12 7.16 C2.86 7.08, 2.61 6.99, 2.37 6.89 C2.13 6.78, 1.9 6.65, 1.69 6.52 C1.48 6.38, 1.29 6.23, 1.11 6.06 C0.93 5.9, 0.77 5.72, 0.64 5.53 C0.5 5.35, 0.38 5.15, 0.29 4.95 C0.19 4.75, 0.12 4.54, 0.07 4.33 C0.02 4.12, 0 3.9, 0 3.69 C0 3.48, 0.02 3.26, 0.07 3.05 C0.12 2.84, 0.19 2.63, 0.29 2.43 C0.38 2.23, 0.5 2.03, 0.64 1.84 C0.77 1.66, 0.93 1.48, 1.11 1.32 C1.29 1.15, 1.48 1, 1.69 0.86 C1.9 0.73, 2.13 0.6, 2.37 0.49 C2.61 0.39, 2.86 0.3, 3.12 0.22 C3.38 0.15, 3.65 0.09, 3.92 0.06 C4.19 0.02, 4.47 0, 4.74 0 C5.02 0, 5.3 0.02, 5.57 0.06 C5.84 0.09, 6.11 0.15, 6.37 0.22 C6.62 0.3, 6.88 0.39, 7.12 0.49 C7.35 0.6, 7.58 0.73, 7.79 0.86 C8 1, 8.2 1.15, 8.38 1.32 C8.55 1.48, 8.72 1.66, 8.85 1.84 C8.99 2.03, 9.11 2.23, 9.2 2.43 C9.3 2.63, 9.37 2.84, 9.42 3.05 C9.46 3.26, 9.48 3.58, 9.49 3.69 C9.5 3.8, 9.5 3.58, 9.49 3.69" stroke="none" stroke-width="0" fill="#868e96"></path><path d="M9.49 3.69 C9.49 3.9, 9.46 4.12, 9.42 4.33 C9.37 4.54, 9.3 4.75, 9.2 4.95 C9.11 5.15, 8.99 5.35, 8.85 5.53 C8.72 5.72, 8.55 5.9, 8.38 6.06 C8.2 6.23, 8 6.38, 7.79 6.52 C7.58 6.65, 7.35 6.78, 7.12 6.89 C6.88 6.99, 6.62 7.08, 6.37 7.16 C6.11 7.23, 5.84 7.29, 5.57 7.32 C5.3 7.36, 5.02 7.38, 4.74 7.38 C4.47 7.38, 4.19 7.36, 3.92 7.32 C3.65 7.29, 3.38 7.23, 3.12 7.16 C2.86 7.08, 2.61 6.99, 2.37 6.89 C2.13 6.78, 1.9 6.65, 1.69 6.52 C1.48 6.38, 1.29 6.23, 1.11 6.06 C0.93 5.9, 0.77 5.72, 0.64 5.53 C0.5 5.35, 0.38 5.15, 0.29 4.95 C0.19 4.75, 0.12 4.54, 0.07 4.33 C0.02 4.12, 0 3.9, 0 3.69 C0 3.48, 0.02 3.26, 0.07 3.05 C0.12 2.84, 0.19 2.63, 0.29 2.43 C0.38 2.23, 0.5 2.03, 0.64 1.84 C0.77 1.66, 0.93 1.48, 1.11 1.32 C1.29 1.15, 1.48 1, 1.69 0.86 C1.9 0.73, 2.13 0.6, 2.37 0.49 C2.61 0.39, 2.86 0.3, 3.12 0.22 C3.38 0.15, 3.65 0.09, 3.92 0.06 C4.19 0.02, 4.47 0, 4.74 0 C5.02 0, 5.3 0.02, 5.57 0.06 C5.84 0.09, 6.11 0.15, 6.37 0.22 C6.62 0.3, 6.88 0.39, 7.12 0.49 C7.35 0.6, 7.58 0.73, 7.79 0.86 C8 1, 8.2 1.15, 8.38 1.32 C8.55 1.48, 8.72 1.66, 8.85 1.84 C8.99 2.03, 9.11 2.23, 9.2 2.43 C9.3 2.63, 9.37 2.84, 9.42 3.05 C9.46 3.26, 9.48 3.58, 9.49 3.69 C9.5 3.8, 9.5 3.58, 9.49 3.69" stroke="#1e1e1e" stroke-width="1" fill="none"></path></g></svg>