<svg version="1.1" xmlns="http://www.w3.org/2000/svg" viewBox="0 0 87 133.5612903225807" width="87" height="133.5612903225807">
  <!-- svg-source:excalidraw -->
  
  <defs>
    <style class="style-fonts">
      @font-face {
        font-family: "Virgil";
        src: url("https://excalidraw.com/Virgil.woff2");
      }
      @font-face {
        font-family: "Cascadia";
        src: url("https://excalidraw.com/Cascadia.woff2");
      }
      @font-face {
        font-family: "Assistant";
        src: url("https://excalidraw.com/Assistant-Regular.woff2");
      }
    </style>
    
  </defs>
  <g transform="translate(51 33.5612903225807) rotate(0 -2 12.5)" stroke="none"><path fill="#1e1e1e" d="M 0,2.47 Q 0,2.47 -2.01,2.36 -4.02,2.24 -5.74,2.21 -7.46,2.19 -9.05,2.19 -10.64,2.19 -12.06,2.22 -13.48,2.24 -13.94,3.24 -14.40,4.23 -15.64,5.14 -16.87,6.06 -16.84,7.74 -16.81,9.43 -17.33,10.67 -17.85,11.91 -17.79,13.39 -17.73,14.88 -17.75,16.36 -17.76,17.85 -16.81,19.47 -15.85,21.08 -14.30,21.93 -12.75,22.77 -11.67,23.27 -10.59,23.78 -9.74,24.54 -8.90,25.30 -7.07,25.42 -5.25,25.54 -4.06,25.56 -2.87,25.57 -1.40,25.60 0.06,25.63 2.16,25.25 4.26,24.87 5.34,24.65 6.42,24.44 7.19,23.36 7.96,22.29 9.16,20.93 10.36,19.58 11.75,17.80 13.15,16.02 13.35,14.94 13.55,13.87 13.58,12.80 13.61,11.72 13.61,10.44 13.61,9.16 13.60,7.99 13.59,6.81 13.59,5.37 13.59,3.93 12.12,3.13 10.64,2.32 9.27,1.93 7.89,1.53 6.58,1.10 5.28,0.68 3.32,0.16 1.36,-0.35 -0.00,-0.47 -1.37,-0.59 -3.14,-0.63 -4.91,-0.67 -6.05,-0.65 -7.19,-0.63 -8.60,-0.63 -10.01,-0.63 -11.34,0.77 -12.68,2.19 -13.20,3.59 -13.72,4.99 -13.96,5.48 -14.21,5.98 -14.60,6.37 -14.99,6.77 -15.48,7.02 -15.98,7.26 -16.53,7.34 -17.08,7.42 -17.62,7.31 -18.16,7.21 -18.65,6.94 -19.13,6.67 -19.50,6.26 -19.87,5.85 -20.09,5.34 -20.31,4.83 -20.36,4.28 -20.41,3.73 -20.28,3.19 -20.14,2.65 -19.85,2.19 -19.55,1.72 -19.12,1.37 -18.69,1.02 -18.17,0.83 -17.65,0.64 -17.10,0.62 -16.54,0.60 -16.02,0.76 -15.49,0.92 -15.03,1.25 -14.58,1.57 -14.26,2.02 -13.93,2.46 -13.77,2.99 -13.61,3.52 -13.62,4.07 -13.63,4.63 -13.82,5.15 -14.01,5.67 -14.36,6.10 -14.70,6.53 -15.17,6.83 -15.63,7.13 -16.17,7.27 -16.71,7.41 -17.26,7.36 -17.81,7.32 -18.32,7.10 -18.83,6.88 -19.24,6.52 -19.66,6.15 -19.93,5.67 -20.20,5.19 -20.31,4.64 -20.42,4.10 -20.34,3.55 -20.27,3.00 -20.27,3.00 -20.27,3.00 -19.62,1.58 -18.97,0.15 -18.35,-1.00 -17.73,-2.17 -17.21,-3.14 -16.70,-4.12 -14.76,-5.36 -12.83,-6.60 -10.81,-6.97 -8.80,-7.35 -7.44,-7.34 -6.09,-7.33 -4.72,-7.31 -3.35,-7.29 -2.19,-7.31 -1.03,-7.32 0.34,-7.18 1.72,-7.04 3.31,-6.58 4.91,-6.12 6.75,-5.70 8.58,-5.29 10.71,-4.82 12.84,-4.34 13.93,-3.63 15.02,-2.92 16.01,-2.39 17.01,-1.85 17.81,-1.08 18.61,-0.30 19.50,1.81 20.40,3.93 20.40,5.37 20.40,6.82 20.38,8.00 20.37,9.19 20.35,10.55 20.33,11.92 20.25,13.25 20.17,14.58 19.59,16.75 19.02,18.92 18.06,19.97 17.11,21.02 16.63,21.98 16.16,22.95 15.57,23.97 14.98,25.00 13.80,26.07 12.62,27.13 11.81,27.97 11.00,28.81 10.03,29.64 9.05,30.47 6.70,30.98 4.34,31.49 3.08,31.90 1.83,32.31 0.21,32.30 -1.40,32.30 -3.20,32.21 -5.00,32.13 -7.20,31.70 -9.40,31.27 -10.59,31.09 -11.78,30.92 -13.28,30.08 -14.77,29.23 -15.87,28.51 -16.96,27.78 -18.36,26.87 -19.77,25.95 -20.64,25.07 -21.50,24.18 -22.43,22.40 -23.36,20.61 -23.79,19.38 -24.22,18.15 -24.22,16.46 -24.23,14.78 -24.16,13.32 -24.08,11.86 -23.60,10.20 -23.12,8.54 -22.52,7.58 -21.91,6.62 -21.58,4.84 -21.24,3.06 -19.73,1.73 -18.22,0.40 -17.27,-0.41 -16.32,-1.23 -15.38,-1.74 -14.44,-2.24 -12.54,-2.22 -10.64,-2.19 -9.05,-2.19 -7.46,-2.19 -5.74,-2.21 -4.02,-2.24 -2.01,-2.36 0,-2.47 0.29,-2.44 0.59,-2.40 0.87,-2.30 1.15,-2.19 1.39,-2.02 1.64,-1.85 1.84,-1.63 2.04,-1.40 2.17,-1.14 2.31,-0.87 2.39,-0.58 2.46,-0.29 2.46,0.00 2.46,0.29 2.38,0.58 2.31,0.87 2.17,1.14 2.04,1.40 1.84,1.63 1.64,1.85 1.39,2.02 1.15,2.19 0.87,2.30 0.59,2.40 0.29,2.44 -0.00,2.47 -0.00,2.47 L 0,2.47 Z"></path></g><g transform="translate(40 61.5612903225807) rotate(0 3.5 31)" stroke="none"><path fill="#1e1e1e" d="M 0.50,2.54 Q 0.50,2.54 -0.93,2.81 -2.37,3.09 -3.96,3.53 -5.56,3.97 -6.93,4.91 -8.31,5.85 -10.09,6.66 -11.88,7.47 -12.64,8.27 -13.41,9.06 -14.53,9.62 -15.65,10.19 -16.24,11.50 -16.83,12.80 -17.33,13.79 -17.84,14.78 -18.86,16.02 -19.87,17.27 -20.26,18.33 -20.65,19.39 -21.11,21.63 -21.57,23.88 -22.16,25.37 -22.74,26.86 -23.71,28.41 -24.69,29.96 -25.07,31.98 -25.45,34.00 -26.04,35.95 -26.63,37.91 -26.60,39.39 -26.57,40.87 -26.58,42.44 -26.60,44.01 -26.58,45.11 -26.57,46.21 -26.40,47.52 -26.23,48.83 -24.84,49.60 -23.45,50.37 -22.59,51.30 -21.74,52.23 -19.88,52.89 -18.03,53.55 -17.00,54.46 -15.97,55.37 -13.88,55.91 -11.78,56.44 -10.37,56.92 -8.95,57.40 -7.10,57.52 -5.25,57.64 -3.86,58.03 -2.47,58.41 -0.80,58.53 0.87,58.64 2.44,58.66 4.01,58.67 5.52,58.67 7.03,58.67 8.41,58.66 9.79,58.65 11.96,58.27 14.13,57.90 15.65,57.42 17.17,56.93 18.64,55.88 20.11,54.84 21.55,53.99 22.99,53.14 24.29,52.33 25.59,51.51 26.73,50.82 27.87,50.13 28.90,49.29 29.93,48.46 31.15,47.12 32.37,45.79 32.47,44.65 32.58,43.51 32.98,41.25 33.37,38.99 33.52,37.43 33.67,35.87 33.69,34.53 33.70,33.19 33.70,31.59 33.71,30.00 33.68,28.89 33.66,27.78 33.26,26.16 32.86,24.54 32.73,23.21 32.59,21.89 32.20,20.72 31.80,19.56 30.90,17.76 30.01,15.96 29.45,14.89 28.90,13.82 28.35,12.34 27.80,10.87 26.95,9.98 26.10,9.09 25.54,7.63 24.99,6.18 23.31,5.22 21.62,4.25 21.14,3.95 20.65,3.64 20.29,3.20 19.93,2.76 19.73,2.22 19.53,1.69 19.51,1.11 19.49,0.54 19.65,-0.00 19.82,-0.54 20.15,-1.01 20.48,-1.48 20.94,-1.82 21.40,-2.15 21.95,-2.32 22.49,-2.50 23.06,-2.48 23.64,-2.47 24.18,-2.28 24.71,-2.09 25.16,-1.73 25.61,-1.38 25.92,-0.90 26.23,-0.42 26.38,0.13 26.52,0.68 26.48,1.25 26.43,1.82 26.21,2.35 25.99,2.88 25.61,3.31 25.23,3.74 24.73,4.02 24.24,4.31 23.68,4.42 23.12,4.53 22.55,4.46 21.98,4.38 21.47,4.13 20.95,3.88 20.54,3.48 20.14,3.08 19.88,2.57 19.62,2.06 19.54,1.49 19.46,0.92 19.56,0.36 19.67,-0.19 19.94,-0.69 20.22,-1.19 20.65,-1.58 21.07,-1.96 21.59,-2.19 22.12,-2.42 22.69,-2.47 23.26,-2.52 23.81,-2.39 24.37,-2.25 24.37,-2.25 24.37,-2.25 25.88,-0.95 27.38,0.35 28.64,1.12 29.90,1.90 30.79,3.77 31.68,5.65 32.54,6.34 33.39,7.03 34.01,8.24 34.63,9.45 35.00,10.56 35.37,11.68 36.19,12.90 37.01,14.13 37.72,16.08 38.43,18.03 38.92,19.24 39.41,20.46 39.39,21.77 39.38,23.09 39.84,24.31 40.31,25.52 40.31,27.19 40.30,28.85 40.28,30.12 40.26,31.38 40.25,33.20 40.24,35.01 40.13,36.49 40.03,37.97 39.68,40.11 39.33,42.26 39.25,43.80 39.17,45.34 38.58,47.12 38.00,48.90 37.02,49.92 36.04,50.93 35.11,52.24 34.18,53.55 33.25,54.40 32.32,55.25 31.01,55.95 29.69,56.65 28.47,57.62 27.24,58.58 26.20,58.97 25.16,59.36 23.63,60.52 22.09,61.69 21.01,62.40 19.92,63.11 18.67,63.30 17.42,63.49 15.62,64.04 13.81,64.59 12.46,64.97 11.12,65.35 9.64,65.34 8.16,65.34 6.93,65.32 5.71,65.30 4.15,65.29 2.59,65.28 0.71,65.25 -1.16,65.22 -2.78,64.96 -4.40,64.70 -5.95,64.46 -7.50,64.23 -8.59,64.13 -9.69,64.04 -11.19,63.54 -12.68,63.04 -13.89,62.57 -15.09,62.11 -16.72,61.87 -18.34,61.63 -19.38,61.07 -20.41,60.51 -21.72,59.76 -23.04,59.01 -25.04,57.61 -27.04,56.21 -27.99,55.70 -28.95,55.19 -29.79,54.24 -30.64,53.29 -31.54,52.12 -32.44,50.94 -32.92,49.71 -33.39,48.47 -33.40,46.81 -33.40,45.14 -33.39,43.89 -33.38,42.63 -33.38,40.86 -33.38,39.09 -33.23,37.74 -33.08,36.40 -32.57,34.90 -32.06,33.40 -31.65,32.18 -31.24,30.97 -31.00,29.52 -30.77,28.08 -29.98,26.68 -29.19,25.27 -28.55,24.31 -27.91,23.35 -27.49,22.11 -27.07,20.87 -26.84,19.35 -26.62,17.84 -26.17,16.46 -25.72,15.08 -24.61,13.93 -23.50,12.78 -23.04,11.52 -22.57,10.25 -21.60,9.14 -20.64,8.02 -18.60,5.96 -16.56,3.90 -15.61,3.23 -14.65,2.56 -13.17,1.76 -11.70,0.95 -10.53,0.68 -9.35,0.40 -8.48,-0.28 -7.60,-0.97 -5.49,-1.45 -3.37,-1.94 -1.94,-2.24 -0.50,-2.54 -0.19,-2.57 0.11,-2.59 0.42,-2.54 0.73,-2.49 1.02,-2.36 1.30,-2.24 1.55,-2.05 1.80,-1.86 2.00,-1.62 2.20,-1.38 2.33,-1.09 2.46,-0.81 2.52,-0.50 2.59,-0.19 2.57,0.11 2.56,0.42 2.47,0.72 2.38,1.02 2.22,1.29 2.07,1.56 1.85,1.79 1.63,2.01 1.37,2.18 1.10,2.35 0.80,2.45 0.50,2.54 0.50,2.54 L 0.50,2.54 Z"></path></g><g transform="translate(44 46.5612903225807) rotate(0 -6.5 5)" stroke="none"><path d="M0 0 C0 0.17, 0.83 0.5, 0 1 C-0.83 1.5, -4.17 2.5, -5 3 C-5.83 3.5, -4.5 3.67, -5 4 C-5.5 4.33, -7.33 4.5, -8 5 C-8.67 5.5, -8.5 6.67, -9 7 C-9.5 7.33, -10.17 6.5, -11 7 C-11.83 7.5, -15 9.5, -14 10 C-13 10.5, -6.67 10.33, -5 10 C-3.33 9.67, -5 8.5, -4 8 C-3 7.5, 0.33 8.33, 1 7 C1.67 5.67, 0.17 1.17, 0 0" stroke="none" stroke-width="0" fill="#e9ecef" fill-rule="evenodd"></path><path fill="#f08c00" d="M 1.87,1.87 Q 1.87,1.87 1.00,2.75 0.14,3.62 -0.78,4.24 -1.70,4.86 -3.02,5.68 -4.33,6.49 -5.26,7.48 -6.20,8.47 -7.17,9.06 -8.14,9.65 -9.60,10.67 -11.05,11.70 -12.10,12.26 -13.15,12.81 -13.55,12.83 -13.95,12.85 -14.35,12.78 -14.74,12.70 -15.11,12.53 -15.48,12.36 -15.79,12.11 -16.10,11.86 -16.35,11.54 -16.59,11.22 -16.75,10.85 -16.91,10.48 -16.98,10.08 -17.05,9.68 -17.02,9.28 -16.99,8.88 -16.87,8.50 -16.74,8.12 -16.53,7.77 -16.32,7.43 -16.03,7.15 -15.74,6.87 -15.40,6.66 -15.05,6.46 -14.66,6.35 -14.28,6.23 -13.06,6.40 -11.85,6.57 -10.48,6.59 -9.11,6.60 -7.96,6.59 -6.80,6.59 -5.80,5.78 -4.81,4.97 -3.22,4.38 -1.64,3.79 -2.41,2.07 -3.19,0.34 -3.16,-0.17 -3.13,-0.69 -2.94,-1.17 -2.75,-1.65 -2.41,-2.05 -2.07,-2.45 -1.63,-2.71 -1.18,-2.98 -0.67,-3.09 -0.17,-3.20 0.34,-3.15 0.86,-3.09 1.33,-2.87 1.80,-2.65 2.18,-2.30 2.55,-1.94 2.80,-1.48 3.04,-1.02 3.12,-0.51 3.21,0.00 3.12,0.51 3.04,1.02 2.80,1.48 2.55,1.94 2.17,2.30 1.80,2.66 1.32,2.87 0.85,3.09 0.33,3.15 -0.17,3.20 -0.68,3.09 -1.19,2.98 -1.63,2.71 -2.08,2.44 -2.41,2.05 -2.75,1.65 -2.94,1.17 -3.13,0.68 -3.16,0.16 -3.19,-0.35 -3.05,-0.85 -2.91,-1.35 -2.62,-1.78 -2.33,-2.21 -1.91,-2.52 -1.50,-2.84 -1.00,-3.00 -0.51,-3.17 0.00,-3.17 0.52,-3.17 1.01,-3.00 1.50,-2.83 1.92,-2.52 2.33,-2.20 2.62,-1.77 2.91,-1.34 3.05,-0.84 3.19,-0.34 3.19,-0.34 3.19,-0.34 3.37,0.87 3.54,2.08 3.98,3.36 4.41,4.63 4.04,6.49 3.66,8.35 1.92,9.38 0.18,10.41 -1.35,11.07 -2.90,11.73 -3.80,12.31 -4.71,12.90 -6.33,13.14 -7.94,13.38 -9.42,13.36 -10.90,13.34 -12.02,13.07 -13.15,12.81 -13.55,12.83 -13.95,12.85 -14.35,12.78 -14.74,12.70 -15.11,12.53 -15.47,12.36 -15.79,12.11 -16.10,11.86 -16.35,11.54 -16.59,11.22 -16.75,10.85 -16.91,10.48 -16.98,10.08 -17.05,9.68 -17.02,9.28 -16.99,8.88 -16.87,8.50 -16.74,8.12 -16.53,7.77 -16.32,7.43 -16.03,7.15 -15.74,6.87 -15.40,6.66 -15.05,6.46 -14.66,6.35 -14.28,6.23 -13.74,5.61 -13.20,5.00 -11.77,4.46 -10.35,3.92 -8.57,2.79 -6.78,1.66 -5.18,0.74 -3.59,-0.17 -2.73,-1.02 -1.87,-1.87 -1.62,-2.06 -1.37,-2.26 -1.07,-2.39 -0.78,-2.52 -0.47,-2.58 -0.15,-2.64 0.15,-2.62 0.47,-2.60 0.78,-2.50 1.08,-2.41 1.36,-2.24 1.63,-2.08 1.85,-1.85 2.08,-1.63 2.24,-1.35 2.41,-1.08 2.50,-0.78 2.60,-0.47 2.62,-0.15 2.64,0.16 2.58,0.47 2.52,0.78 2.39,1.07 2.26,1.37 2.06,1.62 1.87,1.87 1.87,1.87 L 1.87,1.87 Z"></path></g><g transform="translate(53.54838709677415 42.258064516129025) rotate(0 3.8709677419354875 0.48387096774195015)" stroke="none"><path fill="#1e1e1e" d="M -1.24,-2.17 Q -1.24,-2.17 -0.61,-2.59 0.00,-3.00 1.33,-3.76 2.65,-4.52 3.87,-4.68 5.09,-4.84 6.41,-4.33 7.73,-3.81 8.48,-2.97 9.22,-2.13 10.00,-0.10 10.78,1.91 10.86,2.42 10.94,2.94 10.85,3.45 10.76,3.96 10.51,4.41 10.26,4.87 9.88,5.22 9.50,5.57 9.03,5.78 8.56,5.99 8.04,6.04 7.53,6.09 7.02,5.97 6.52,5.86 6.08,5.58 5.64,5.31 5.31,4.91 4.97,4.51 4.79,4.03 4.60,3.55 4.58,3.03 4.56,2.51 4.70,2.02 4.85,1.52 5.14,1.09 5.44,0.67 5.86,0.36 6.27,0.05 6.76,-0.10 7.26,-0.26 7.78,-0.25 8.29,-0.24 8.78,-0.07 9.27,0.09 9.68,0.41 10.09,0.73 10.37,1.16 10.66,1.59 10.79,2.09 10.92,2.59 10.89,3.11 10.85,3.62 10.66,4.10 10.46,4.58 10.12,4.97 9.78,5.36 9.33,5.62 8.89,5.89 8.38,5.99 7.87,6.10 7.36,6.03 6.84,5.97 6.38,5.75 5.91,5.52 5.54,5.16 5.17,4.80 4.93,4.34 4.69,3.88 4.69,3.88 4.69,3.88 4.85,2.18 5.01,0.48 3.80,1.00 2.58,1.52 1.91,1.85 1.24,2.17 0.96,2.29 0.68,2.41 0.38,2.46 0.08,2.50 -0.21,2.48 -0.51,2.45 -0.79,2.35 -1.08,2.26 -1.34,2.09 -1.59,1.93 -1.80,1.71 -2.01,1.49 -2.16,1.23 -2.31,0.97 -2.39,0.68 -2.47,0.39 -2.49,0.08 -2.50,-0.21 -2.43,-0.50 -2.37,-0.80 -2.24,-1.07 -2.11,-1.35 -1.92,-1.58 -1.73,-1.81 -1.48,-1.99 -1.24,-2.17 -1.24,-2.17 L -1.24,-2.17 Z"></path></g><g transform="translate(44.83870967741939 40.64516129032256) rotate(0 -5.48387096774195 -1.935483870967687)" stroke="none"><path fill="#1e1e1e" d="M -2.14,1.43 Q -2.14,1.43 -2.55,0.89 -2.96,0.36 -3.56,-0.52 -4.17,-1.42 -5.40,-1.06 -6.63,-0.70 -7.17,-0.18 -7.71,0.34 -7.90,0.84 -8.09,1.34 -8.43,1.76 -8.77,2.17 -9.23,2.46 -9.69,2.74 -10.21,2.87 -10.73,2.99 -11.27,2.94 -11.80,2.89 -12.30,2.67 -12.79,2.45 -13.18,2.09 -13.58,1.72 -13.84,1.25 -14.10,0.78 -14.19,0.25 -14.29,-0.27 -14.21,-0.80 -14.13,-1.33 -13.88,-1.81 -13.64,-2.29 -13.25,-2.67 -12.87,-3.04 -12.38,-3.27 -11.90,-3.51 -11.37,-3.57 -10.83,-3.64 -10.30,-3.53 -9.78,-3.42 -9.31,-3.15 -8.85,-2.88 -8.49,-2.48 -8.14,-2.07 -7.93,-1.58 -7.73,-1.08 -7.69,-0.54 -7.65,-0.01 -7.79,0.50 -7.93,1.02 -8.22,1.47 -8.52,1.92 -8.94,2.25 -9.36,2.59 -9.87,2.77 -10.38,2.95 -10.91,2.95 -11.45,2.96 -11.96,2.80 -12.48,2.63 -12.91,2.31 -13.34,1.99 -13.65,1.55 -13.96,1.11 -14.11,0.60 -14.26,0.08 -14.24,-0.45 -14.22,-0.98 -14.22,-0.98 -14.22,-0.98 -12.64,-2.88 -11.05,-4.77 -9.86,-5.75 -8.66,-6.73 -7.31,-6.86 -5.95,-6.99 -4.73,-6.90 -3.50,-6.82 -1.74,-6.14 0.02,-5.45 0.75,-4.02 1.48,-2.59 1.81,-2.01 2.14,-1.43 2.28,-1.15 2.42,-0.87 2.49,-0.57 2.56,-0.26 2.56,0.04 2.55,0.35 2.47,0.65 2.39,0.95 2.24,1.22 2.09,1.49 1.88,1.72 1.67,1.95 1.42,2.13 1.16,2.30 0.86,2.40 0.57,2.51 0.26,2.54 -0.04,2.57 -0.34,2.53 -0.65,2.49 -0.94,2.37 -1.23,2.26 -1.48,2.08 -1.74,1.90 -1.94,1.66 -2.14,1.43 -2.14,1.43 L -2.14,1.43 Z"></path></g><g transform="translate(31.290322580645125 62.258064516129025) rotate(0 15.48387096774195 0.8064516129032313)" stroke="none"><path fill="#e03131" d="M 0,-2.53 Q 0,-2.53 0.83,-2.57 1.66,-2.62 2.76,-2.71 3.85,-2.80 5.12,-2.91 6.39,-3.01 7.65,-2.92 8.91,-2.84 10.39,-2.89 11.86,-2.95 13.25,-2.85 14.64,-2.76 16.06,-2.77 17.49,-2.78 18.74,-2.65 19.99,-2.53 21.07,-2.37 22.16,-2.22 23.24,-1.99 24.32,-1.75 25.51,-1.86 26.70,-1.98 28.23,-2.38 29.77,-2.78 30.35,-2.88 30.93,-2.98 31.51,-2.89 32.09,-2.80 32.61,-2.53 33.13,-2.26 33.54,-1.84 33.95,-1.42 34.20,-0.89 34.45,-0.36 34.52,0.22 34.59,0.80 34.47,1.38 34.35,1.95 34.05,2.46 33.75,2.96 33.31,3.35 32.87,3.73 32.32,3.96 31.78,4.18 31.19,4.22 30.61,4.26 30.04,4.10 29.47,3.95 28.98,3.63 28.49,3.30 28.13,2.84 27.77,2.37 27.58,1.82 27.38,1.26 27.38,0.68 27.37,0.09 27.55,-0.46 27.74,-1.02 28.09,-1.49 28.44,-1.96 28.92,-2.30 29.40,-2.63 29.97,-2.79 30.53,-2.96 31.12,-2.93 31.71,-2.90 32.26,-2.69 32.80,-2.48 33.26,-2.10 33.71,-1.73 34.02,-1.23 34.32,-0.73 34.46,-0.16 34.59,0.41 34.53,0.99 34.47,1.58 34.23,2.11 33.99,2.65 33.59,3.08 33.19,3.51 32.67,3.79 32.16,4.07 32.16,4.07 32.16,4.07 30.84,4.34 29.51,4.61 28.31,4.91 27.10,5.21 25.84,5.18 24.58,5.16 23.42,4.96 22.27,4.76 21.03,4.62 19.80,4.49 18.62,4.28 17.45,4.07 16.00,3.99 14.55,3.91 13.20,3.75 11.84,3.59 10.45,3.53 9.06,3.47 7.72,3.24 6.39,3.01 5.12,2.91 3.85,2.80 2.76,2.71 1.66,2.62 0.83,2.57 0,2.53 -0.30,2.49 -0.60,2.46 -0.89,2.35 -1.17,2.24 -1.42,2.07 -1.68,1.89 -1.88,1.66 -2.08,1.43 -2.22,1.16 -2.36,0.89 -2.44,0.60 -2.51,0.30 -2.51,-0.00 -2.51,-0.30 -2.44,-0.60 -2.36,-0.89 -2.22,-1.16 -2.08,-1.43 -1.88,-1.66 -1.68,-1.89 -1.42,-2.07 -1.17,-2.24 -0.89,-2.35 -0.60,-2.46 -0.30,-2.49 0.00,-2.53 0.00,-2.53 L 0,-2.53 Z"></path></g><g transform="translate(30.322580645161338 61.61290322580646) rotate(0 16.935483870967687 4.677419354838719)" stroke="none"><path fill="#e03131" d="M 1.13,2.26 Q 1.13,2.26 0.41,2.67 -0.31,3.09 -1.09,4.20 -1.88,5.31 -2.55,6.28 -3.21,7.24 -3.85,8.15 -4.49,9.05 -4.96,7.12 -5.43,5.19 -3.66,5.37 -1.89,5.56 -0.68,5.60 0.51,5.64 1.61,5.75 2.72,5.85 4.18,5.88 5.65,5.90 6.74,5.90 7.84,5.89 9.09,5.89 10.35,5.88 11.50,5.87 12.65,5.87 14.10,5.84 15.54,5.81 16.95,5.80 18.37,5.79 19.72,5.80 21.08,5.81 22.23,5.81 23.39,5.80 24.70,5.78 26.00,5.76 27.16,5.75 28.32,5.74 29.42,5.74 30.51,5.74 32.14,5.62 33.77,5.49 35.11,5.47 36.45,5.45 37.74,5.32 39.04,5.20 38.19,6.19 37.35,7.18 37.62,8.21 37.90,9.24 37.07,8.53 36.23,7.81 35.58,6.95 34.92,6.09 34.27,6.18 33.62,6.27 33.04,6.08 32.47,5.90 31.98,5.54 31.50,5.17 31.15,4.68 30.81,4.18 30.64,3.60 30.48,3.02 30.50,2.41 30.53,1.81 30.75,1.24 30.97,0.68 31.35,0.21 31.74,-0.24 32.26,-0.56 32.77,-0.87 33.36,-1.01 33.95,-1.15 34.55,-1.09 35.15,-1.03 35.71,-0.78 36.26,-0.53 36.70,-0.12 37.14,0.28 37.43,0.82 37.72,1.35 37.82,1.94 37.93,2.54 37.84,3.14 37.74,3.74 37.47,4.27 37.19,4.81 36.75,5.23 36.32,5.65 35.77,5.91 35.22,6.17 34.62,6.24 34.02,6.31 33.43,6.19 32.84,6.06 32.32,5.76 31.80,5.45 31.40,4.99 31.00,4.53 30.77,3.97 30.54,3.41 30.51,2.81 30.47,2.21 30.62,1.62 30.78,1.04 31.11,0.53 31.45,0.03 31.93,-0.33 32.41,-0.70 32.98,-0.90 33.55,-1.10 34.15,-1.10 34.76,-1.11 34.76,-1.11 34.76,-1.11 36.65,-0.34 38.54,0.42 39.68,1.26 40.82,2.11 42.05,3.17 43.27,4.24 43.93,6.09 44.59,7.94 44.28,9.03 43.96,10.11 42.11,11.20 40.25,12.30 38.39,12.46 36.53,12.63 35.00,12.68 33.47,12.72 31.99,12.84 30.51,12.96 29.42,12.96 28.32,12.96 27.16,12.95 26.00,12.94 24.70,12.92 23.39,12.90 22.23,12.89 21.08,12.89 19.72,12.90 18.37,12.91 16.95,12.90 15.54,12.89 14.10,12.86 12.65,12.83 11.50,12.83 10.34,12.82 9.08,12.81 7.82,12.81 6.69,12.79 5.56,12.77 4.45,12.73 3.33,12.69 2.08,12.55 0.83,12.40 -0.43,12.31 -1.69,12.21 -3.29,11.91 -4.90,11.61 -6.79,10.71 -8.67,9.81 -9.34,7.87 -10.01,5.94 -8.98,4.58 -7.94,3.21 -7.19,2.37 -6.43,1.52 -5.67,0.60 -4.91,-0.30 -3.78,-0.95 -2.65,-1.60 -1.89,-1.93 -1.13,-2.26 -0.84,-2.37 -0.55,-2.47 -0.25,-2.50 0.04,-2.53 0.35,-2.49 0.65,-2.44 0.93,-2.33 1.22,-2.22 1.47,-2.04 1.71,-1.86 1.91,-1.63 2.11,-1.39 2.25,-1.12 2.38,-0.85 2.45,-0.55 2.52,-0.25 2.51,0.04 2.51,0.35 2.43,0.65 2.35,0.94 2.20,1.21 2.05,1.48 1.85,1.70 1.64,1.93 1.38,2.09 1.13,2.26 1.13,2.26 L 1.13,2.26 Z"></path></g><g transform="translate(64.51612903225805 64.19354838709683) rotate(0 -17.258064516129025 1.2903225806451246)" stroke="none"><path d="M0 0 C-1.61 0.32, -3.92 1.51, -9.68 1.94 C-15.43 2.37, -35.75 2.58, -34.52 2.58 C-33.28 2.58, -7.63 2.04, -2.26 1.94" stroke="none" stroke-width="0" fill="#e9ecef" fill-rule="evenodd"></path><path fill="#e03131" d="M 0.90,2.48 Q 0.90,2.48 -0.10,2.88 -1.12,3.27 -3.26,3.70 -5.40,4.14 -6.80,4.37 -8.19,4.61 -10.18,4.74 -12.17,4.86 -14.03,4.90 -15.88,4.94 -17.01,4.99 -18.14,5.04 -19.55,5.09 -20.95,5.14 -22.12,5.17 -23.29,5.20 -24.69,5.24 -26.10,5.28 -27.58,5.44 -29.07,5.60 -30.44,5.74 -31.80,5.88 -32.89,5.98 -33.98,6.08 -34.41,6.06 -34.83,6.03 -35.24,5.91 -35.64,5.78 -36.01,5.56 -36.37,5.34 -36.67,5.04 -36.97,4.74 -37.19,4.38 -37.41,4.01 -37.54,3.61 -37.67,3.20 -37.69,2.78 -37.72,2.35 -37.64,1.94 -37.57,1.52 -37.39,1.13 -37.22,0.74 -36.96,0.41 -36.69,0.07 -36.36,-0.18 -36.02,-0.44 -35.64,-0.61 -35.25,-0.79 -34.83,-0.87 -34.41,-0.94 -32.71,-0.90 -31.01,-0.86 -29.07,-0.83 -27.14,-0.79 -25.87,-0.83 -24.60,-0.86 -22.56,-0.99 -20.53,-1.13 -18.79,-1.14 -17.05,-1.15 -15.66,-1.15 -14.26,-1.15 -13.13,-1.12 -11.99,-1.08 -10.49,-1.07 -8.99,-1.06 -7.20,-1.13 -5.41,-1.20 -3.84,-1.23 -2.27,-1.26 -1.76,-1.18 -1.25,-1.10 -0.79,-0.86 -0.33,-0.62 0.02,-0.24 0.38,0.12 0.60,0.59 0.82,1.06 0.88,1.57 0.94,2.09 0.83,2.59 0.72,3.10 0.45,3.55 0.19,3.99 -0.20,4.33 -0.59,4.67 -1.07,4.86 -1.55,5.05 -2.07,5.08 -2.58,5.12 -3.08,4.98 -3.58,4.84 -4.01,4.55 -4.44,4.27 -4.76,3.86 -5.07,3.44 -5.24,2.95 -5.41,2.46 -5.41,1.95 -5.42,1.43 -5.25,0.94 -5.09,0.44 -4.78,0.03 -4.47,-0.37 -4.04,-0.67 -3.61,-0.96 -3.11,-1.10 -2.61,-1.24 -2.10,-1.22 -1.58,-1.19 -1.10,-1.00 -0.62,-0.81 -0.22,-0.48 0.17,-0.14 0.44,0.29 0.71,0.73 0.82,1.24 0.93,1.74 0.88,2.26 0.83,2.77 0.61,3.24 0.40,3.71 0.04,4.09 -0.30,4.47 -0.76,4.72 -1.22,4.96 -1.73,5.05 -2.24,5.13 -2.24,5.13 -2.24,5.13 -3.75,5.13 -5.27,5.12 -6.94,5.16 -8.62,5.21 -10.30,5.40 -11.99,5.60 -13.59,5.63 -15.20,5.65 -16.90,5.68 -18.61,5.71 -20.15,5.77 -21.69,5.83 -23.14,5.93 -24.60,6.02 -25.87,5.99 -27.14,5.95 -29.08,5.98 -31.02,6.02 -32.50,6.05 -33.98,6.08 -34.41,6.06 -34.83,6.03 -35.24,5.91 -35.64,5.78 -36.01,5.56 -36.37,5.34 -36.67,5.04 -36.97,4.74 -37.19,4.38 -37.41,4.01 -37.54,3.61 -37.67,3.20 -37.69,2.78 -37.72,2.35 -37.64,1.94 -37.57,1.52 -37.39,1.13 -37.22,0.74 -36.96,0.41 -36.69,0.07 -36.36,-0.18 -36.03,-0.44 -35.64,-0.61 -35.25,-0.79 -34.83,-0.87 -34.41,-0.94 -33.66,-0.97 -32.90,-0.99 -31.07,-1.11 -29.24,-1.22 -27.67,-1.31 -26.10,-1.40 -24.69,-1.37 -23.29,-1.33 -22.12,-1.30 -20.95,-1.27 -19.55,-1.22 -18.15,-1.17 -17.03,-1.12 -15.91,-1.08 -14.10,-1.07 -12.29,-1.06 -10.79,-1.08 -9.29,-1.10 -7.75,-1.24 -6.22,-1.38 -4.59,-1.59 -2.95,-1.79 -1.93,-2.14 -0.90,-2.48 -0.59,-2.56 -0.28,-2.63 0.03,-2.62 0.35,-2.62 0.66,-2.54 0.97,-2.46 1.25,-2.31 1.53,-2.15 1.77,-1.94 2.00,-1.72 2.18,-1.46 2.36,-1.19 2.47,-0.89 2.57,-0.59 2.61,-0.28 2.64,0.03 2.60,0.35 2.56,0.66 2.44,0.96 2.32,1.26 2.14,1.52 1.95,1.78 1.71,1.99 1.47,2.19 1.18,2.34 0.90,2.48 0.90,2.48 L 0.90,2.48 Z"></path></g><g transform="translate(30.9677419354839 66.77419354838707) rotate(0 -4.677419354838719 16.129032258064512)" stroke="none"><path fill="#e03131" d="M 0.89,2.38 Q 0.89,2.38 0.16,2.70 -0.55,3.02 -1.20,4.11 -1.85,5.21 -1.72,6.35 -1.60,7.50 -1.95,9.11 -2.31,10.71 -2.17,11.89 -2.03,13.08 -1.68,14.60 -1.34,16.11 -1.45,17.42 -1.57,18.73 -1.71,19.84 -1.86,20.95 -2.20,22.38 -2.55,23.80 -2.85,24.84 -3.16,25.89 -3.77,27.26 -4.38,28.64 -4.49,29.84 -4.60,31.05 -6.58,33.47 -8.57,35.90 -9.17,35.93 -9.77,35.96 -10.35,35.79 -10.93,35.63 -11.43,35.29 -11.92,34.95 -12.29,34.47 -12.65,33.98 -12.84,33.41 -13.03,32.84 -13.03,32.24 -13.02,31.63 -12.83,31.06 -12.63,30.49 -12.27,30.01 -11.90,29.54 -11.40,29.20 -10.90,28.86 -10.32,28.71 -9.74,28.55 -9.13,28.58 -8.53,28.62 -7.97,28.84 -7.41,29.07 -6.96,29.46 -6.50,29.85 -6.19,30.37 -5.88,30.89 -5.75,31.48 -5.63,32.07 -5.70,32.67 -5.76,33.27 -6.02,33.81 -6.28,34.36 -6.69,34.79 -7.11,35.23 -7.64,35.51 -8.18,35.79 -8.77,35.88 -9.37,35.98 -9.96,35.88 -10.56,35.78 -11.09,35.49 -11.62,35.21 -12.03,34.77 -12.44,34.33 -12.69,33.78 -12.95,33.23 -13.01,32.63 -13.07,32.03 -12.94,31.45 -12.80,30.86 -12.49,30.34 -12.18,29.83 -11.72,29.44 -11.26,29.05 -10.69,28.83 -10.13,28.61 -10.13,28.61 -10.13,28.61 -10.76,28.01 -11.39,27.41 -11.14,26.29 -10.88,25.18 -10.39,24.22 -9.91,23.25 -9.49,22.00 -9.08,20.75 -8.86,19.41 -8.63,18.07 -8.64,16.70 -8.64,15.32 -8.77,13.56 -8.89,11.81 -8.83,10.75 -8.78,9.68 -8.42,8.56 -8.07,7.44 -7.99,6.30 -7.91,5.16 -7.65,3.97 -7.39,2.77 -6.96,1.77 -6.53,0.77 -5.66,-0.06 -4.80,-0.90 -3.60,-1.40 -2.41,-1.91 -1.65,-2.14 -0.89,-2.38 -0.59,-2.45 -0.29,-2.53 0.00,-2.52 0.31,-2.52 0.61,-2.45 0.91,-2.37 1.18,-2.23 1.45,-2.09 1.68,-1.88 1.91,-1.68 2.08,-1.42 2.26,-1.17 2.36,-0.88 2.47,-0.60 2.51,-0.29 2.54,0.00 2.50,0.31 2.47,0.61 2.36,0.90 2.25,1.19 2.07,1.44 1.90,1.69 1.66,1.89 1.43,2.10 1.16,2.24 0.89,2.38 0.89,2.38 L 0.89,2.38 Z"></path></g><g transform="translate(21.612903225806463 96.45161290322574) rotate(0 6.774193548387075 -10.645161290322562)" stroke="none"><path fill="#e03131" d="M -0.23,-2.56 Q -0.23,-2.56 0.78,-2.69 1.80,-2.81 2.96,-2.95 4.13,-3.08 5.34,-3.18 6.55,-3.29 7.91,-3.12 9.26,-2.96 10.37,-3.08 11.48,-3.21 10.62,-4.08 9.77,-4.94 9.88,-6.13 9.99,-7.33 9.97,-8.45 9.95,-9.58 9.94,-10.87 9.92,-12.16 9.91,-13.26 9.90,-14.37 9.73,-15.52 9.56,-16.68 9.86,-17.45 10.16,-18.23 9.72,-18.64 9.29,-19.06 9.01,-19.59 8.73,-20.12 8.64,-20.71 8.55,-21.30 8.65,-21.90 8.75,-22.49 9.03,-23.02 9.31,-23.54 9.75,-23.95 10.19,-24.36 10.73,-24.61 11.28,-24.86 11.88,-24.92 12.47,-24.99 13.06,-24.85 13.64,-24.72 14.16,-24.41 14.67,-24.10 15.05,-23.64 15.44,-23.18 15.66,-22.62 15.88,-22.06 15.91,-21.46 15.94,-20.87 15.77,-20.29 15.61,-19.71 15.27,-19.22 14.93,-18.72 14.45,-18.36 13.97,-18.00 13.40,-17.81 12.83,-17.62 12.23,-17.63 11.63,-17.63 11.07,-17.82 10.50,-18.02 10.02,-18.38 9.55,-18.75 9.21,-19.25 8.88,-19.75 8.72,-20.33 8.56,-20.90 8.60,-21.50 8.64,-22.10 8.86,-22.66 9.09,-23.21 9.48,-23.67 9.87,-24.12 10.38,-24.43 10.90,-24.74 11.49,-24.86 12.07,-24.99 12.67,-24.92 13.26,-24.85 13.81,-24.60 14.35,-24.34 14.35,-24.34 14.35,-24.34 15.55,-20.58 16.75,-16.81 16.97,-15.28 17.18,-13.74 17.17,-12.45 17.16,-11.16 17.14,-9.85 17.11,-8.55 17.07,-7.20 17.03,-5.85 16.83,-4.72 16.63,-3.59 16.41,-2.52 16.19,-1.46 15.63,-0.09 15.06,1.27 13.51,2.24 11.95,3.21 10.81,3.19 9.68,3.17 8.60,2.93 7.53,2.70 6.27,2.61 5.01,2.53 3.64,2.49 2.27,2.44 1.25,2.50 0.23,2.56 -0.07,2.55 -0.38,2.54 -0.68,2.46 -0.98,2.38 -1.25,2.22 -1.52,2.07 -1.75,1.86 -1.98,1.65 -2.14,1.38 -2.31,1.12 -2.41,0.83 -2.52,0.54 -2.54,0.23 -2.57,-0.07 -2.53,-0.38 -2.48,-0.69 -2.36,-0.97 -2.24,-1.26 -2.06,-1.51 -1.87,-1.76 -1.63,-1.96 -1.39,-2.16 -1.12,-2.30 -0.84,-2.43 -0.53,-2.50 -0.23,-2.56 -0.23,-2.56 L -0.23,-2.56 Z"></path></g><g transform="translate(30.645161290322562 74.83870967741939) rotate(0 -0.6451612903225623 9.838709677419331)" stroke="none"><path fill="#e03131" d="M 2.57,0.55 Q 2.57,0.55 2.29,1.84 2.01,3.14 1.92,5.03 1.83,6.91 1.87,8.11 1.91,9.31 1.98,10.67 2.05,12.03 2.13,13.36 2.20,14.68 2.09,17.18 1.98,19.68 1.89,20.20 1.80,20.72 1.56,21.19 1.31,21.66 0.92,22.02 0.54,22.38 0.06,22.61 -0.41,22.83 -0.94,22.88 -1.47,22.94 -1.98,22.83 -2.50,22.71 -2.95,22.44 -3.41,22.16 -3.75,21.76 -4.09,21.36 -4.29,20.86 -4.48,20.37 -4.51,19.84 -4.54,19.31 -4.40,18.80 -4.25,18.29 -3.96,17.86 -3.66,17.42 -3.24,17.10 -2.81,16.78 -2.31,16.61 -1.81,16.44 -1.28,16.44 -0.75,16.44 -0.25,16.61 0.24,16.78 0.66,17.10 1.08,17.43 1.38,17.86 1.68,18.30 1.82,18.81 1.96,19.32 1.93,19.85 1.90,20.38 1.70,20.87 1.51,21.36 1.16,21.77 0.82,22.17 0.37,22.44 -0.08,22.71 -0.60,22.83 -1.11,22.94 -1.64,22.88 -2.17,22.82 -2.65,22.60 -3.13,22.38 -3.51,22.01 -3.89,21.65 -4.14,21.18 -4.39,20.71 -4.47,20.19 -4.56,19.67 -4.56,19.67 -4.56,19.67 -4.35,17.17 -4.14,14.68 -4.06,13.35 -3.99,12.02 -3.90,10.61 -3.82,9.21 -3.72,7.93 -3.62,6.66 -3.54,5.48 -3.46,4.31 -3.29,3.18 -3.12,2.04 -2.84,0.74 -2.57,-0.55 -2.46,-0.85 -2.36,-1.15 -2.19,-1.41 -2.02,-1.68 -1.78,-1.89 -1.55,-2.11 -1.28,-2.27 -1.00,-2.42 -0.70,-2.51 -0.39,-2.59 -0.07,-2.60 0.23,-2.61 0.54,-2.55 0.85,-2.48 1.14,-2.34 1.42,-2.20 1.67,-2.00 1.91,-1.80 2.10,-1.54 2.28,-1.29 2.41,-0.99 2.53,-0.70 2.58,-0.39 2.62,-0.08 2.59,0.23 2.57,0.55 2.57,0.55 L 2.57,0.55 Z"></path></g><g transform="translate(31.290322580645125 100.9677419354839) rotate(0 0.00004999999998744897 0.00004999999998744897)" stroke="none"><path fill="#e03131" d="M 1.57,-1.57 Q 1.57,-1.57 1.77,-1.27 1.98,-0.98 2.09,-0.64 2.20,-0.29 2.19,0.05 2.18,0.41 2.05,0.75 1.93,1.09 1.70,1.37 1.48,1.65 1.18,1.84 0.87,2.04 0.52,2.12 0.18,2.21 -0.17,2.18 -0.53,2.15 -0.86,2.01 -1.19,1.87 -1.46,1.63 -1.73,1.39 -1.90,1.07 -2.08,0.76 -2.15,0.41 -2.21,0.05 -2.17,-0.29 -2.12,-0.65 -1.96,-0.97 -1.80,-1.29 -1.54,-1.54 -1.29,-1.80 -0.97,-1.96 -0.65,-2.12 -0.29,-2.17 0.06,-2.21 0.41,-2.15 0.76,-2.08 1.07,-1.90 1.39,-1.73 1.63,-1.46 1.87,-1.19 2.01,-0.86 2.15,-0.53 2.18,-0.17 2.21,0.18 2.12,0.52 2.03,0.87 1.84,1.18 1.65,1.48 1.37,1.70 1.09,1.93 0.75,2.05 0.41,2.18 0.05,2.19 -0.30,2.20 -0.64,2.09 -0.98,1.98 -1.27,1.77 -1.57,1.56 -1.57,1.57 -1.57,1.57 -1.73,1.35 -1.90,1.14 -2.01,0.90 -2.12,0.66 -2.16,0.39 -2.21,0.13 -2.20,-0.13 -2.18,-0.40 -2.10,-0.65 -2.02,-0.91 -1.88,-1.14 -1.74,-1.36 -1.55,-1.55 -1.36,-1.74 -1.14,-1.88 -0.91,-2.02 -0.65,-2.10 -0.40,-2.18 -0.13,-2.20 0.13,-2.21 0.39,-2.16 0.66,-2.12 0.90,-2.01 1.14,-1.90 1.35,-1.73 1.57,-1.57 1.57,-1.57 L 1.57,-1.57 Z"></path></g><g transform="translate(35.806451612903174 99.67741935483866) rotate(0 -1.7741935483870748 0.483870967742007)" stroke="none"><path d="M0 0 C-0.48 0.11, -2.31 0.22, -2.9 0.65 C-3.49 1.08, -3.71 2.37, -3.55 2.58 C-3.39 2.8, -2.37 2.63, -1.94 1.94 C-1.51 1.24, -1.29 -1.29, -0.97 -1.61 C-0.65 -1.94, -0.16 -0.27, 0 0" stroke="none" stroke-width="0" fill="#e9ecef" fill-rule="evenodd"></path><path fill="#e03131" d="M 0.60,2.41 Q 0.60,2.41 -0.12,2.65 -0.85,2.88 -0.73,3.19 -0.61,3.49 -0.78,3.80 -0.95,4.10 -1.18,4.36 -1.42,4.62 -1.71,4.81 -2.00,5.00 -2.33,5.12 -2.66,5.24 -3.00,5.27 -3.35,5.31 -3.69,5.26 -4.04,5.21 -4.36,5.08 -4.69,4.95 -4.97,4.75 -5.25,4.54 -5.48,4.28 -5.70,4.01 -5.86,3.70 -6.02,3.39 -6.09,3.05 -6.17,2.71 -6.16,2.36 -6.16,2.01 -6.07,1.68 -5.98,1.34 -4.80,0.39 -3.62,-0.55 -3.29,-0.78 -2.96,-1.01 -2.79,-1.35 -2.63,-1.69 -2.38,-1.98 -2.14,-2.27 -1.84,-2.50 -1.54,-2.72 -1.19,-2.86 -0.84,-3.01 -0.47,-3.07 -0.09,-3.12 0.27,-3.09 0.65,-3.06 1.00,-2.93 1.36,-2.81 1.68,-2.61 2.00,-2.40 2.25,-2.13 2.51,-1.85 2.70,-1.53 2.89,-1.20 2.99,-0.83 3.09,-0.47 3.10,-0.09 3.11,0.27 3.03,0.64 2.96,1.01 2.97,0.05 2.99,-0.89 3.06,-0.39 3.12,0.10 3.02,0.60 2.93,1.09 2.67,1.53 2.42,1.97 2.04,2.31 1.66,2.64 1.20,2.84 0.73,3.04 0.23,3.08 -0.27,3.11 -0.76,2.99 -1.25,2.86 -1.68,2.59 -2.10,2.31 -2.42,1.91 -2.73,1.52 -2.90,1.04 -3.07,0.56 -3.08,0.06 -3.09,-0.44 -2.94,-0.92 -2.79,-1.40 -2.49,-1.81 -2.19,-2.22 -1.78,-2.52 -1.37,-2.81 -0.88,-2.95 -0.40,-3.10 0.10,-3.08 0.61,-3.07 1.08,-2.89 1.55,-2.71 1.95,-2.39 2.34,-2.07 2.61,-1.64 2.88,-1.21 3.00,-0.72 3.12,-0.23 3.07,0.27 3.03,0.77 2.82,1.23 2.62,1.70 2.28,2.07 1.94,2.45 1.50,2.69 1.05,2.94 0.56,3.03 0.06,3.12 -0.43,3.05 -0.93,2.98 -1.39,2.75 -1.84,2.52 -2.19,2.16 -2.55,1.80 -2.75,0.39 -2.96,-1.01 -2.79,-1.35 -2.63,-1.69 -2.39,-1.98 -2.14,-2.27 -1.84,-2.50 -1.54,-2.72 -1.19,-2.86 -0.84,-3.01 -0.47,-3.07 -0.09,-3.12 0.27,-3.09 0.65,-3.06 1.00,-2.93 1.36,-2.81 1.68,-2.61 2.00,-2.40 2.25,-2.13 2.51,-1.85 2.70,-1.53 2.89,-1.20 2.99,-0.83 3.09,-0.47 3.10,-0.09 3.11,0.27 3.03,0.64 2.96,1.01 2.40,1.01 1.85,1.02 1.11,2.27 0.36,3.53 -1.05,4.33 -2.47,5.12 -1.54,4.31 -0.61,3.49 -0.78,3.80 -0.95,4.10 -1.18,4.36 -1.42,4.62 -1.71,4.81 -2.00,5.00 -2.33,5.12 -2.66,5.24 -3.00,5.27 -3.35,5.31 -3.69,5.26 -4.04,5.21 -4.36,5.08 -4.69,4.95 -4.97,4.75 -5.25,4.54 -5.48,4.28 -5.70,4.01 -5.86,3.70 -6.02,3.39 -6.09,3.05 -6.17,2.71 -6.16,2.36 -6.16,2.01 -6.07,1.68 -5.98,1.34 -6.01,1.59 -6.04,1.85 -5.65,0.64 -5.27,-0.55 -3.69,-1.35 -2.11,-2.14 -1.35,-2.28 -0.60,-2.41 -0.30,-2.45 -0.00,-2.49 0.29,-2.45 0.58,-2.42 0.86,-2.31 1.15,-2.21 1.39,-2.04 1.64,-1.87 1.84,-1.64 2.04,-1.42 2.18,-1.15 2.32,-0.89 2.40,-0.60 2.47,-0.30 2.47,-0.00 2.47,0.29 2.40,0.58 2.33,0.87 2.19,1.14 2.05,1.40 1.85,1.63 1.65,1.86 1.41,2.03 1.16,2.20 0.88,2.31 0.60,2.41 0.60,2.41 L 0.60,2.41 Z"></path></g><g transform="translate(35.806451612903174 96.45161290322574) rotate(0 0.483870967742007 -5.645161290322562)" stroke="none"><path fill="#e03131" d="M -2.45,-0.73 Q -2.45,-0.73 -2.21,-1.67 -1.97,-2.61 -1.51,-4.27 -1.05,-5.93 -2.28,-8.01 -3.52,-10.09 -3.64,-10.58 -3.75,-11.07 -3.71,-11.57 -3.66,-12.07 -3.45,-12.54 -3.25,-13.00 -2.91,-13.37 -2.57,-13.74 -2.12,-13.98 -1.68,-14.23 -1.19,-14.32 -0.69,-14.41 -0.19,-14.33 0.30,-14.26 0.75,-14.03 1.20,-13.80 1.55,-13.44 1.91,-13.08 2.12,-12.62 2.34,-12.17 2.41,-11.67 2.47,-11.16 2.37,-10.67 2.27,-10.17 2.01,-9.74 1.76,-9.30 1.38,-8.97 1.00,-8.64 0.53,-8.44 0.07,-8.25 -0.43,-8.21 -0.93,-8.18 -1.42,-8.31 -1.91,-8.43 -2.33,-8.71 -2.75,-8.99 -3.06,-9.38 -3.37,-9.78 -3.54,-10.26 -3.71,-10.73 -3.72,-11.24 -3.73,-11.74 -3.57,-12.22 -3.42,-12.70 -3.12,-13.11 -2.82,-13.52 -2.41,-13.81 -1.99,-14.10 -1.51,-14.24 -1.02,-14.38 -0.52,-14.36 -0.02,-14.34 0.45,-14.16 0.92,-13.98 1.31,-13.66 1.70,-13.34 1.96,-12.91 2.23,-12.48 2.23,-12.48 2.23,-12.49 3.15,-10.93 4.06,-9.38 4.32,-7.68 4.57,-5.99 4.29,-4.82 4.00,-3.65 3.54,-2.37 3.08,-1.09 2.76,-0.18 2.45,0.73 2.33,1.01 2.20,1.30 2.01,1.54 1.83,1.79 1.58,1.98 1.34,2.17 1.06,2.30 0.78,2.43 0.48,2.49 0.18,2.55 -0.12,2.54 -0.43,2.52 -0.73,2.43 -1.02,2.34 -1.29,2.19 -1.55,2.03 -1.77,1.81 -1.99,1.60 -2.16,1.33 -2.32,1.07 -2.41,0.78 -2.51,0.48 -2.53,0.18 -2.55,-0.12 -2.50,-0.43 -2.45,-0.73 -2.45,-0.73 L -2.45,-0.73 Z"></path></g><g transform="translate(34.83870967741939 29.354838709677438) rotate(0 18.387096774193537 3.064516129032313)" stroke="none"><path d="M0 0 C0.81 0.59, 2.2 2.47, 4.84 3.55 C7.47 4.62, 10.38 5.81, 15.81 6.45 C21.24 7.1, 33.82 7.53, 37.42 7.42 C41.02 7.31, 37.96 6.4, 37.42 5.81 C36.88 5.22, 36.77 4.73, 34.19 3.87 C31.61 3.01, 27.74 1.51, 21.94 0.65 C16.13 -0.22, 3.01 -1.18, -0.65 -1.29 C-4.3 -1.4, -0.11 -0.22, 0 0" stroke="none" stroke-width="0" fill="#e9ecef" fill-rule="evenodd"></path><path fill="#1971c2" d="M 1.64,-2.06 Q 1.64,-2.06 2.58,-1.33 3.52,-0.60 4.95,0.08 6.38,0.76 7.51,1.18 8.65,1.60 10.25,1.99 11.86,2.37 13.40,2.69 14.95,3.01 16.28,3.13 17.61,3.25 18.83,3.24 20.04,3.22 21.41,3.18 22.78,3.14 24.21,3.38 25.64,3.61 26.85,3.64 28.06,3.68 29.43,3.79 30.80,3.90 31.95,3.91 33.10,3.92 34.33,3.89 35.56,3.87 34.72,4.80 33.88,5.73 34.27,7.20 34.67,8.67 33.71,7.98 32.76,7.28 31.38,6.95 30.01,6.61 28.57,6.11 27.13,5.60 26.04,5.28 24.96,4.97 23.40,4.64 21.84,4.32 20.34,4.17 18.83,4.03 17.34,3.97 15.85,3.92 14.75,3.78 13.65,3.65 12.35,3.63 11.05,3.61 9.34,3.30 7.62,3.00 6.46,2.86 5.30,2.73 3.99,2.56 2.68,2.39 1.33,3.02 -0.01,3.66 -0.45,3.60 -0.88,3.55 -1.30,3.39 -1.71,3.23 -2.07,2.98 -2.43,2.73 -2.72,2.39 -3.02,2.06 -3.22,1.67 -3.42,1.28 -3.53,0.85 -3.63,0.42 -3.63,-0.01 -3.63,-0.45 -3.52,-0.88 -3.41,-1.31 -3.21,-1.70 -3.00,-2.09 -2.71,-2.41 -2.41,-2.74 -2.05,-2.99 -1.68,-3.24 -1.27,-3.40 -0.86,-3.55 -0.42,-3.60 0.01,-3.66 1.82,-1.63 3.63,0.39 3.48,0.96 3.32,1.53 2.99,2.02 2.65,2.51 2.18,2.87 1.71,3.23 1.15,3.42 0.59,3.61 0.00,3.61 -0.59,3.61 -1.15,3.42 -1.71,3.23 -2.18,2.87 -2.65,2.51 -2.98,2.02 -3.32,1.53 -3.48,0.96 -3.63,0.39 -3.60,-0.19 -3.57,-0.78 -3.35,-1.33 -3.13,-1.88 -2.75,-2.33 -2.36,-2.78 -1.86,-3.09 -1.35,-3.40 -0.77,-3.52 -0.19,-3.65 0.39,-3.59 0.97,-3.52 1.51,-3.27 2.05,-3.02 2.48,-2.62 2.91,-2.21 3.19,-1.69 3.46,-1.16 3.56,-0.58 3.66,-0.00 3.56,0.58 3.46,1.16 3.19,1.69 2.91,2.21 2.48,2.62 2.05,3.02 1.51,3.27 0.97,3.52 0.39,3.59 -0.19,3.65 -0.77,3.52 -1.35,3.40 -1.86,3.09 -2.36,2.78 -2.75,2.33 -3.13,1.88 -3.35,1.33 -3.57,0.78 -1.79,2.22 -0.01,3.66 -0.45,3.60 -0.88,3.55 -1.30,3.39 -1.71,3.23 -2.07,2.98 -2.43,2.73 -2.72,2.39 -3.02,2.06 -3.22,1.67 -3.42,1.28 -3.53,0.85 -3.63,0.42 -3.63,-0.01 -3.63,-0.45 -3.52,-0.88 -3.41,-1.31 -3.21,-1.70 -3.00,-2.09 -2.71,-2.41 -2.41,-2.74 -2.05,-2.99 -1.68,-3.24 -1.27,-3.40 -0.86,-3.55 -0.42,-3.60 0.01,-3.66 0.87,-4.31 1.73,-4.96 3.02,-4.93 4.30,-4.90 5.75,-4.57 7.20,-4.25 8.41,-4.11 9.62,-3.97 10.70,-3.78 11.79,-3.59 13.02,-3.56 14.24,-3.52 15.65,-3.38 17.07,-3.23 18.49,-3.16 19.91,-3.08 20.98,-2.97 22.04,-2.87 23.17,-2.68 24.30,-2.49 25.68,-2.17 27.07,-1.86 28.56,-1.41 30.06,-0.96 31.18,-0.60 32.31,-0.24 33.36,0.10 34.42,0.46 35.56,0.83 36.71,1.20 37.86,2.04 39.02,2.89 39.67,3.94 40.32,5.00 40.31,6.95 40.31,8.90 39.38,9.55 38.45,10.20 37.46,10.59 36.47,10.98 35.37,10.96 34.27,10.94 32.94,10.89 31.61,10.85 30.36,10.67 29.11,10.50 27.98,10.47 26.85,10.43 25.65,10.31 24.45,10.18 22.68,9.94 20.92,9.69 19.80,9.66 18.68,9.62 17.30,9.54 15.91,9.46 14.31,9.04 12.70,8.63 11.64,8.30 10.58,7.97 8.64,7.39 6.70,6.81 5.57,6.38 4.43,5.95 3.24,5.43 2.04,4.91 1.11,4.24 0.18,3.56 -0.73,2.81 -1.64,2.06 -1.87,1.83 -2.09,1.60 -2.25,1.33 -2.41,1.05 -2.50,0.75 -2.60,0.44 -2.61,0.13 -2.63,-0.18 -2.57,-0.49 -2.51,-0.81 -2.37,-1.09 -2.24,-1.38 -2.04,-1.63 -1.84,-1.88 -1.59,-2.07 -1.34,-2.27 -1.05,-2.40 -0.75,-2.52 -0.44,-2.58 -0.13,-2.63 0.18,-2.61 0.50,-2.59 0.80,-2.49 1.10,-2.39 1.37,-2.22 1.64,-2.06 1.64,-2.06 L 1.64,-2.06 Z"></path></g><g transform="translate(34.193548387096826 28.064516129032313) rotate(0 19.35483870967738 -6.774193548387132)" stroke="none"><path fill="#1971c2" d="M -1.54,-2.12 Q -1.54,-2.12 -0.52,-2.87 0.48,-3.62 1.70,-4.34 2.91,-5.06 3.93,-5.67 4.95,-6.27 5.96,-6.78 6.97,-7.28 8.07,-7.79 9.18,-8.31 10.25,-9.00 11.32,-9.69 12.32,-10.28 13.33,-10.87 14.15,-11.64 14.97,-12.40 16.23,-13.56 17.49,-14.72 18.21,-15.57 18.92,-16.43 20.12,-17.56 21.31,-18.70 22.40,-19.78 23.49,-20.85 24.69,-21.26 25.88,-21.67 27.94,-21.04 30.01,-20.41 31.10,-19.55 32.19,-18.69 32.97,-17.96 33.75,-17.23 34.44,-16.30 35.13,-15.38 35.99,-14.45 36.86,-13.52 37.56,-12.67 38.27,-11.82 38.80,-10.77 39.33,-9.72 40.02,-8.43 40.71,-7.14 41.18,-5.93 41.65,-4.73 41.88,-3.67 42.10,-2.61 42.13,-1.54 42.16,-0.48 42.32,1.04 42.47,2.57 42.49,3.38 42.51,4.18 42.46,4.64 42.41,5.09 42.25,5.53 42.10,5.96 41.84,6.34 41.58,6.72 41.25,7.03 40.91,7.34 40.50,7.55 40.10,7.77 39.66,7.89 39.21,8.00 38.75,8.01 38.30,8.02 37.85,7.91 37.40,7.81 36.99,7.60 36.58,7.39 36.24,7.09 35.89,6.79 35.62,6.42 35.36,6.05 35.19,5.62 35.02,5.19 34.96,4.74 34.90,4.28 35.32,5.45 35.75,6.62 34.89,5.58 34.04,4.54 32.36,3.98 30.68,3.42 29.05,2.85 27.41,2.28 26.08,1.96 24.74,1.64 22.55,1.39 20.35,1.14 18.81,0.97 17.27,0.80 15.94,0.68 14.61,0.55 13.45,0.56 12.29,0.57 10.55,-0.93 8.82,-2.43 9.05,-3.61 9.29,-4.79 10.53,-5.67 11.78,-6.55 12.80,-6.91 13.82,-7.27 15.22,-7.56 16.62,-7.85 18.08,-8.26 19.54,-8.68 20.63,-8.97 21.72,-9.26 22.78,-9.89 23.83,-10.52 23.97,-11.70 24.10,-12.88 24.43,-13.79 24.75,-14.70 25.00,-15.02 25.25,-15.34 25.57,-15.60 25.89,-15.85 26.26,-16.02 26.63,-16.19 27.04,-16.27 27.44,-16.34 27.85,-16.32 28.25,-16.30 28.64,-16.18 29.03,-16.06 29.39,-15.86 29.74,-15.65 30.03,-15.36 30.32,-15.07 30.53,-14.72 30.75,-14.38 30.87,-13.99 30.99,-13.60 31.02,-13.19 31.05,-12.78 30.98,-12.38 30.91,-11.98 30.74,-11.61 30.58,-11.23 30.44,-10.14 30.31,-9.05 29.38,-7.60 28.45,-6.15 27.41,-5.61 26.38,-5.06 26.16,-4.90 25.93,-4.74 25.53,-4.62 25.12,-4.50 24.70,-4.48 24.27,-4.46 23.86,-4.54 23.44,-4.62 23.06,-4.79 22.67,-4.97 22.34,-5.24 22.01,-5.50 21.75,-5.84 21.50,-6.17 21.33,-6.56 21.16,-6.95 21.08,-7.36 21.01,-7.78 21.04,-8.20 21.07,-8.63 21.20,-9.03 21.33,-9.43 21.55,-9.79 21.78,-10.15 22.08,-10.45 22.38,-10.75 22.75,-10.96 23.11,-11.18 24.91,-10.94 26.71,-10.70 27.83,-10.31 28.94,-9.91 30.13,-9.42 31.32,-8.93 32.80,-8.39 34.28,-7.84 34.79,-7.59 35.30,-7.35 35.66,-7.14 36.01,-6.93 36.30,-6.64 36.59,-6.36 36.81,-6.01 37.02,-5.66 37.15,-5.27 37.27,-4.88 37.30,-4.47 37.33,-4.07 37.26,-3.66 37.19,-3.26 37.03,-2.88 36.86,-2.51 36.61,-2.18 36.36,-1.86 36.04,-1.60 35.73,-1.35 35.35,-1.18 34.98,-1.01 34.58,-0.93 34.18,-0.85 33.77,-0.87 33.36,-0.89 32.97,-1.01 32.58,-1.13 31.51,-2.42 30.44,-3.72 29.81,-5.81 29.19,-7.90 29.20,-8.45 29.21,-9.00 29.40,-9.52 29.59,-10.04 29.93,-10.48 30.27,-10.91 30.74,-11.21 31.20,-11.51 31.74,-11.65 32.27,-11.79 32.82,-11.75 33.38,-11.71 33.89,-11.49 34.40,-11.28 34.81,-10.91 35.22,-10.54 35.50,-10.06 35.78,-9.58 35.88,-9.04 35.99,-8.50 35.92,-7.95 35.85,-7.40 35.61,-6.91 35.37,-6.41 34.98,-6.01 34.59,-5.62 34.10,-5.37 33.60,-5.12 33.06,-5.04 32.51,-4.96 31.96,-5.06 31.42,-5.16 30.94,-5.43 30.45,-5.70 30.08,-6.11 29.71,-6.52 29.49,-7.03 29.26,-7.53 29.22,-8.08 29.17,-8.63 29.30,-9.17 29.43,-9.71 29.72,-10.18 30.01,-10.65 30.44,-11.00 30.87,-11.35 31.39,-11.54 31.91,-11.73 32.46,-11.75 33.01,-11.77 33.54,-11.61 34.07,-11.46 34.52,-11.14 34.98,-10.82 35.30,-10.37 35.63,-9.92 35.79,-9.40 35.96,-8.87 35.96,-8.87 35.96,-8.87 35.63,-8.11 35.30,-7.35 35.66,-7.14 36.01,-6.93 36.30,-6.64 36.59,-6.36 36.81,-6.01 37.02,-5.66 37.15,-5.27 37.27,-4.88 37.30,-4.47 37.33,-4.07 37.26,-3.66 37.19,-3.26 37.03,-2.88 36.86,-2.51 36.61,-2.18 36.36,-1.86 36.05,-1.60 35.73,-1.35 35.35,-1.18 34.98,-1.01 34.58,-0.93 34.18,-0.85 33.77,-0.87 33.36,-0.89 32.97,-1.01 32.58,-1.13 32.00,-1.47 31.43,-1.81 30.23,-2.24 29.03,-2.67 27.84,-3.04 26.66,-3.42 24.67,-4.19 22.69,-4.96 24.31,-4.85 25.93,-4.74 25.53,-4.62 25.12,-4.50 24.70,-4.48 24.27,-4.46 23.86,-4.54 23.44,-4.62 23.06,-4.79 22.67,-4.97 22.34,-5.24 22.01,-5.50 21.75,-5.84 21.50,-6.17 21.33,-6.56 21.16,-6.95 21.08,-7.36 21.01,-7.78 21.04,-8.20 21.07,-8.63 21.20,-9.03 21.33,-9.43 21.55,-9.79 21.78,-10.15 22.08,-10.45 22.38,-10.75 22.75,-10.96 23.11,-11.18 23.75,-11.72 24.38,-12.27 24.57,-13.48 24.75,-14.70 25.00,-15.02 25.25,-15.34 25.57,-15.60 25.89,-15.85 26.26,-16.02 26.63,-16.19 27.04,-16.27 27.44,-16.34 27.84,-16.32 28.25,-16.30 28.64,-16.18 29.03,-16.06 29.39,-15.86 29.74,-15.65 30.03,-15.36 30.32,-15.07 30.53,-14.73 30.75,-14.38 30.87,-13.99 30.99,-13.60 31.02,-13.19 31.05,-12.78 30.98,-12.38 30.91,-11.98 30.74,-11.61 30.58,-11.23 30.27,-10.38 29.96,-9.53 29.32,-8.13 28.69,-6.73 27.63,-5.85 26.56,-4.97 25.57,-4.46 24.57,-3.96 23.03,-3.56 21.49,-3.17 18.77,-2.22 16.04,-1.27 15.02,-0.87 13.99,-0.47 14.06,-1.78 14.14,-3.09 13.27,-4.40 12.41,-5.70 13.74,-5.63 15.08,-5.56 16.44,-5.34 17.80,-5.12 19.44,-4.85 21.08,-4.58 22.19,-4.44 23.30,-4.30 24.60,-4.16 25.89,-4.02 27.39,-3.76 28.88,-3.50 30.86,-3.15 32.83,-2.81 36.23,-1.56 39.62,-0.32 40.45,0.54 41.29,1.40 41.90,2.79 42.51,4.18 42.46,4.64 42.41,5.09 42.25,5.52 42.10,5.96 41.84,6.34 41.58,6.72 41.25,7.03 40.91,7.34 40.50,7.55 40.10,7.77 39.66,7.89 39.21,8.00 38.75,8.01 38.30,8.02 37.85,7.91 37.40,7.81 36.99,7.60 36.58,7.39 36.24,7.09 35.89,6.80 35.62,6.42 35.36,6.05 35.19,5.62 35.02,5.19 34.96,4.74 34.90,4.29 34.90,3.50 34.90,2.71 34.75,1.13 34.60,-0.44 34.51,-1.63 34.42,-2.82 33.93,-4.06 33.44,-5.29 32.51,-6.82 31.58,-8.34 30.88,-9.39 30.18,-10.43 29.34,-11.28 28.50,-12.12 27.68,-13.30 26.86,-14.48 27.76,-15.45 28.65,-16.42 27.57,-15.20 26.49,-13.98 25.57,-13.17 24.66,-12.36 24.01,-11.51 23.36,-10.65 22.51,-9.98 21.66,-9.31 20.59,-8.33 19.51,-7.35 18.46,-6.64 17.40,-5.93 16.01,-5.01 14.62,-4.09 13.00,-3.36 11.39,-2.63 10.03,-2.09 8.67,-1.55 7.44,-0.97 6.21,-0.39 4.90,0.13 3.59,0.65 2.56,1.39 1.54,2.12 1.27,2.28 0.99,2.43 0.68,2.51 0.38,2.60 0.06,2.61 -0.25,2.61 -0.56,2.55 -0.87,2.48 -1.15,2.34 -1.44,2.20 -1.68,1.99 -1.92,1.79 -2.11,1.53 -2.29,1.27 -2.41,0.98 -2.53,0.69 -2.58,0.37 -2.62,0.06 -2.59,-0.25 -2.56,-0.56 -2.46,-0.86 -2.35,-1.16 -2.18,-1.43 -2.01,-1.69 -1.77,-1.91 -1.54,-2.12 -1.54,-2.12 L -1.54,-2.12 Z"></path></g><g transform="translate(44.05658362716895 82.87939869462718) rotate(0 -5.684341886080802e-14 14.876441327228633)" stroke="none"><path fill="#ffffff" d="M 0,-2.56 Q 0,-2.56 1.70,-2.51 3.41,-2.45 4.62,-2.61 5.83,-2.77 8.14,-2.92 10.45,-3.08 12.01,-3.18 13.58,-3.28 14.91,-3.59 16.24,-3.90 17.60,-4.04 18.97,-4.17 19.29,-3.08 19.62,-1.98 17.91,-2.04 16.19,-2.09 15.00,-2.08 13.82,-2.06 12.65,-2.03 11.48,-2.00 10.39,-1.97 9.30,-1.95 8.10,-1.91 6.89,-1.88 5.59,-1.86 4.28,-1.84 2.95,-1.82 1.62,-1.81 0.47,-1.79 -0.67,-1.77 -1.76,-1.76 -2.84,-1.74 -1.77,-2.64 -0.69,-3.53 -0.03,-2.32 0.63,-1.11 1.29,0.24 1.95,1.60 2.53,2.75 3.10,3.90 3.15,5.13 3.21,6.37 3.21,7.58 3.22,8.78 3.23,10.09 3.23,11.40 3.23,12.53 3.24,13.66 3.24,14.74 3.25,15.82 3.25,16.91 3.26,17.99 3.23,19.20 3.20,20.40 2.82,21.50 2.45,22.59 1.44,23.79 0.43,24.98 -0.35,25.72 -1.15,26.46 -2.22,26.94 -3.29,27.43 -4.71,28.02 -6.13,28.60 -7.25,28.88 -8.38,29.17 -9.66,29.20 -10.94,29.23 -12.42,28.83 -13.90,28.43 -14.97,27.54 -16.04,26.64 -17.31,25.33 -18.58,24.01 -17.50,23.89 -16.42,23.76 -15.23,22.98 -14.05,22.21 -14.91,23.52 -15.76,24.84 -16.83,25.58 -17.90,26.33 -19.31,26.95 -20.72,27.57 -21.92,27.59 -23.13,27.62 -24.67,27.25 -26.20,26.88 -27.85,25.72 -29.50,24.57 -30.75,23.26 -31.99,21.95 -32.47,20.63 -32.95,19.30 -32.95,18.12 -32.96,16.94 -32.60,15.85 -32.24,14.76 -31.42,13.46 -30.60,12.16 -29.90,11.08 -29.21,10.00 -28.49,8.97 -27.76,7.95 -27.49,6.71 -27.21,5.47 -27.15,4.28 -27.09,3.09 -27.09,2.01 -27.09,0.94 -27.09,0.39 -27.10,-0.14 -27.04,-0.60 -26.98,-1.05 -26.82,-1.49 -26.66,-1.92 -26.39,-2.30 -26.13,-2.68 -25.78,-2.99 -25.44,-3.30 -25.03,-3.51 -24.62,-3.73 -24.17,-3.84 -23.72,-3.95 -23.26,-3.95 -22.79,-3.95 -22.34,-3.84 -21.89,-3.73 -21.48,-3.51 -21.08,-3.30 -20.73,-2.99 -20.38,-2.68 -20.12,-2.30 -19.86,-1.92 -19.69,-1.49 -19.53,-1.05 -19.47,-0.60 -19.42,-0.14 -19.44,1.35 -19.45,2.84 -19.68,3.90 -19.90,4.95 -20.22,6.02 -20.53,7.09 -20.81,8.25 -21.09,9.40 -21.38,10.45 -21.67,11.51 -22.23,12.67 -22.78,13.83 -23.32,14.92 -23.86,16.01 -24.16,17.20 -24.46,18.38 -24.42,19.48 -24.38,20.58 -23.77,22.37 -23.17,24.15 -22.20,24.81 -21.23,25.48 -19.75,26.24 -18.27,27.01 -17.01,27.75 -15.75,28.50 -14.52,29.17 -13.29,29.83 -11.95,30.36 -10.62,30.89 -8.90,31.42 -7.18,31.95 -5.99,32.00 -4.80,32.04 -3.70,32.04 -2.61,32.03 -1.52,32.03 -0.44,32.02 1.04,32.02 2.52,32.02 3.76,32.01 4.99,32.00 6.41,31.56 7.83,31.12 8.92,30.57 10.02,30.02 10.92,29.43 11.83,28.85 12.92,28.30 14.01,27.75 15.42,27.27 16.83,26.79 18.19,26.18 19.55,25.57 20.76,24.66 21.97,23.76 22.96,22.93 23.95,22.09 24.77,21.04 25.60,19.99 25.52,18.83 25.44,17.67 25.44,16.50 25.44,15.33 25.45,14.14 25.45,12.96 25.44,11.60 25.44,10.23 25.44,9.10 25.43,7.97 25.45,6.55 25.46,5.13 24.94,4.08 24.42,3.03 24.13,1.94 23.85,0.86 23.40,-0.16 22.96,-1.20 22.35,-2.53 21.74,-3.87 22.39,-2.98 23.03,-2.09 21.91,-0.64 20.78,0.80 19.44,1.74 18.10,2.67 16.94,3.11 15.79,3.55 13.96,3.83 12.13,4.10 10.90,4.38 9.67,4.65 7.88,5.45 6.08,6.24 4.90,6.76 3.71,7.27 4.28,7.11 4.85,6.95 4.58,7.30 4.30,7.65 3.95,7.92 3.61,8.20 3.20,8.38 2.80,8.57 2.36,8.65 1.92,8.73 1.48,8.70 1.04,8.67 0.61,8.54 0.19,8.41 -0.18,8.18 -0.56,7.95 -0.88,7.64 -1.19,7.33 -1.42,6.95 -1.65,6.57 -1.79,6.14 -1.92,5.72 -1.95,5.28 -1.97,4.83 -1.90,4.40 -1.82,3.96 -1.63,3.55 -1.45,3.15 1.02,2.39 3.51,1.64 5.71,1.82 7.92,2.00 9.02,1.91 10.13,1.83 11.62,1.52 13.12,1.22 14.56,0.65 16.00,0.09 17.07,-0.00 18.13,-0.11 18.50,-0.30 18.88,-0.49 19.29,-0.45 19.70,-0.42 20.10,-0.29 20.49,-0.16 20.84,0.05 21.19,0.27 21.48,0.57 21.77,0.87 21.98,1.23 22.18,1.58 22.30,1.98 22.42,2.38 22.43,2.79 22.45,3.21 22.37,3.61 22.29,4.02 22.11,4.40 21.93,4.77 21.67,5.09 21.41,5.41 21.08,5.66 20.75,5.91 20.37,6.08 19.99,6.24 19.58,6.31 19.17,6.38 20.87,4.69 22.56,3.00 22.30,4.76 22.05,6.53 20.90,8.26 19.75,10.00 18.75,11.01 17.76,12.01 16.69,12.47 15.62,12.93 14.21,13.51 12.80,14.10 11.29,14.70 9.78,15.30 8.09,16.08 6.41,16.85 6.10,17.13 5.79,17.41 5.46,17.70 5.13,17.99 4.75,18.20 4.36,18.40 3.93,18.51 3.50,18.61 3.06,18.61 2.62,18.61 2.20,18.51 1.77,18.40 1.38,18.20 0.99,18.00 0.66,17.70 0.33,17.41 0.08,17.05 -0.16,16.69 -0.31,16.28 -0.47,15.87 -0.52,15.43 -0.58,14.99 -0.52,14.56 -0.47,14.12 -0.31,13.71 -0.16,13.30 0.08,12.94 0.33,12.57 1.47,11.79 2.61,11.01 3.75,10.22 4.90,9.43 6.77,8.55 8.65,7.68 9.64,7.17 10.63,6.66 11.70,5.97 12.76,5.28 14.30,4.24 15.84,3.21 17.19,2.34 18.53,1.47 19.55,0.84 20.57,0.21 20.78,0.08 20.99,-0.04 21.36,-0.22 21.73,-0.39 22.14,-0.48 22.54,-0.56 22.95,-0.54 23.36,-0.53 23.76,-0.41 24.15,-0.30 24.51,-0.10 24.86,0.10 25.16,0.38 25.46,0.67 25.68,1.01 25.90,1.36 26.03,1.75 26.16,2.14 26.20,2.55 26.23,2.96 26.16,3.37 26.10,3.77 25.94,4.15 25.78,4.53 25.53,4.86 25.29,5.19 24.97,5.45 24.65,5.71 25.50,4.23 26.35,2.75 26.50,4.39 26.65,6.03 26.69,7.33 26.73,8.64 26.75,9.92 26.77,11.20 26.53,12.38 26.30,13.57 25.97,15.40 25.65,17.24 25.09,18.32 24.54,19.40 23.82,20.19 23.11,20.98 21.63,22.21 20.14,23.43 18.55,24.53 16.96,25.63 14.81,26.73 12.66,27.83 11.19,28.10 9.71,28.37 8.48,28.62 7.25,28.87 5.73,29.65 4.20,30.43 3.11,30.70 2.01,30.97 0.48,31.48 -1.04,31.99 -2.51,32.37 -3.97,32.75 -5.29,32.80 -6.61,32.85 -8.10,32.86 -9.60,32.87 -10.81,32.88 -12.03,32.90 -13.52,32.65 -15.00,32.40 -16.42,31.68 -17.83,30.96 -18.13,30.68 -18.43,30.41 -18.86,30.26 -19.28,30.11 -19.65,29.86 -20.03,29.62 -20.33,29.29 -20.64,28.96 -20.85,28.57 -21.07,28.17 -21.19,27.74 -21.30,27.31 -21.31,26.86 -21.32,26.41 -21.22,25.97 -21.12,25.54 -20.92,25.14 -20.72,24.73 -20.43,24.39 -20.14,24.05 -19.78,23.79 -19.42,23.53 -19.00,23.36 -18.58,23.19 -18.14,23.13 -17.70,23.06 -17.25,23.11 -16.80,23.15 -15.54,23.67 -14.28,24.18 -12.64,24.83 -11.00,25.48 -8.95,25.77 -6.89,26.05 -5.20,26.38 -3.51,26.72 -2.25,26.70 -0.98,26.69 0.81,26.71 2.60,26.72 3.69,26.52 4.77,26.31 6.04,26.15 7.31,25.99 8.59,25.67 9.86,25.36 11.06,24.79 12.25,24.22 13.81,23.24 15.36,22.26 16.50,21.12 17.64,19.98 18.30,18.62 18.96,17.27 19.40,16.10 19.84,14.92 20.33,16.26 20.81,17.60 18.93,17.90 17.05,18.19 15.39,18.28 13.73,18.36 12.65,18.57 11.57,18.78 9.90,19.00 8.23,19.22 6.94,19.89 5.65,20.57 5.21,21.32 4.76,22.07 4.56,22.41 4.35,22.76 4.06,23.05 3.78,23.34 3.43,23.55 3.09,23.76 2.70,23.88 2.31,24.01 1.91,24.03 1.50,24.06 1.10,23.99 0.71,23.92 0.34,23.75 -0.03,23.59 -0.35,23.34 -0.67,23.09 -0.92,22.77 -1.17,22.46 -1.34,22.09 -1.51,21.72 -1.58,21.32 -1.66,20.92 -1.63,20.52 -1.61,20.11 -1.49,19.72 -1.38,19.34 0.61,18.30 2.62,17.27 4.19,16.65 5.76,16.02 6.76,15.52 7.76,15.02 9.44,14.03 11.13,13.05 12.29,12.26 13.45,11.48 13.92,11.19 14.39,10.90 14.92,10.78 15.46,10.65 16.01,10.71 16.56,10.76 17.07,10.99 17.57,11.21 17.98,11.59 18.38,11.97 18.64,12.45 18.91,12.94 19.00,13.48 19.10,14.03 19.01,14.57 18.93,15.12 18.68,15.61 18.42,16.10 18.03,16.48 17.63,16.87 17.13,17.10 16.63,17.34 16.08,17.41 15.53,17.47 14.99,17.36 14.45,17.25 13.97,16.97 13.50,16.69 13.14,16.27 12.77,15.85 12.56,15.34 12.35,14.83 12.32,14.28 12.28,13.72 12.43,13.19 12.57,12.66 12.87,12.20 13.18,11.74 13.62,11.40 14.05,11.06 14.57,10.88 15.10,10.69 15.65,10.69 16.20,10.68 16.73,10.86 17.25,11.03 17.70,11.36 18.14,11.69 18.45,12.14 18.77,12.59 18.92,13.13 19.07,13.66 19.05,14.21 19.03,14.76 18.83,15.28 18.63,15.79 18.27,16.22 17.92,16.64 17.92,16.64 17.92,16.64 14.62,18.57 11.32,20.49 9.73,21.29 8.14,22.08 6.98,22.58 5.82,23.08 4.50,23.52 3.17,23.96 3.97,23.01 4.77,22.06 4.56,22.41 4.35,22.76 4.06,23.05 3.78,23.34 3.43,23.55 3.09,23.76 2.70,23.88 2.31,24.01 1.91,24.03 1.50,24.06 1.11,23.99 0.71,23.92 0.34,23.75 -0.03,23.59 -0.35,23.34 -0.67,23.09 -0.92,22.77 -1.17,22.46 -1.34,22.09 -1.51,21.72 -1.58,21.32 -1.66,20.92 -1.63,20.52 -1.61,20.11 -1.49,19.72 -1.38,19.34 -0.82,18.31 -0.26,17.28 0.82,16.51 1.90,15.74 2.93,15.20 3.96,14.66 5.87,13.88 7.78,13.10 9.07,13.02 10.36,12.93 11.67,12.65 12.98,12.36 14.76,12.01 16.54,11.66 19.42,11.37 22.29,11.08 23.67,11.56 25.04,12.03 25.88,14.21 26.72,16.39 26.39,17.58 26.06,18.78 25.61,19.88 25.15,20.98 24.50,21.94 23.86,22.90 22.96,24.17 22.07,25.45 21.28,26.28 20.48,27.10 19.01,28.20 17.55,29.29 16.22,30.00 14.90,30.70 13.64,31.30 12.39,31.90 10.63,32.41 8.87,32.92 7.50,33.02 6.13,33.12 4.36,33.48 2.60,33.85 1.37,33.86 0.14,33.86 -1.26,33.85 -2.66,33.84 -4.30,33.56 -5.94,33.28 -7.51,33.03 -9.08,32.79 -10.74,32.64 -12.41,32.49 -13.65,32.05 -14.90,31.62 -16.67,31.02 -18.43,30.41 -18.86,30.26 -19.28,30.11 -19.65,29.87 -20.03,29.62 -20.33,29.29 -20.64,28.96 -20.85,28.57 -21.07,28.17 -21.19,27.74 -21.30,27.31 -21.31,26.86 -21.32,26.41 -21.22,25.97 -21.12,25.54 -20.92,25.14 -20.72,24.73 -20.43,24.39 -20.14,24.05 -19.78,23.79 -19.42,23.53 -19.00,23.36 -18.58,23.19 -18.14,23.13 -17.70,23.06 -17.25,23.11 -16.80,23.15 -15.78,23.86 -14.77,24.56 -13.80,25.04 -12.83,25.52 -11.57,25.53 -10.30,25.54 -9.16,25.54 -8.02,25.55 -6.65,25.90 -5.28,26.25 -4.34,25.73 -3.40,25.22 -2.00,24.76 -0.60,24.30 0.71,23.84 2.03,23.37 3.18,22.92 4.32,22.46 5.40,22.12 6.49,21.78 7.98,21.48 9.47,21.18 10.51,20.77 11.54,20.35 12.98,19.66 14.42,18.96 15.54,18.28 16.67,17.61 17.92,16.24 19.18,14.87 19.25,13.61 19.33,12.35 19.54,10.82 19.76,9.28 19.78,8.17 19.79,7.05 19.79,5.84 19.79,4.63 20.39,2.29 20.99,-0.04 21.36,-0.22 21.73,-0.39 22.14,-0.48 22.54,-0.56 22.95,-0.54 23.36,-0.53 23.76,-0.41 24.15,-0.30 24.51,-0.10 24.86,0.10 25.16,0.38 25.46,0.67 25.68,1.01 25.90,1.36 26.03,1.75 26.16,2.14 26.20,2.55 26.23,2.96 26.16,3.37 26.10,3.77 25.94,4.15 25.78,4.53 25.53,4.86 25.29,5.19 24.97,5.45 24.65,5.71 23.89,5.81 23.12,5.91 22.25,6.68 21.37,7.46 20.11,8.19 18.85,8.92 17.37,9.86 15.89,10.79 14.70,11.47 13.52,12.15 12.56,12.67 11.60,13.19 10.35,13.99 9.10,14.80 7.45,16.11 5.79,17.41 5.46,17.70 5.13,17.99 4.75,18.20 4.36,18.40 3.93,18.51 3.50,18.61 3.06,18.61 2.62,18.61 2.20,18.51 1.77,18.40 1.38,18.20 0.99,18.00 0.66,17.70 0.33,17.41 0.08,17.05 -0.16,16.69 -0.31,16.28 -0.47,15.87 -0.52,15.43 -0.58,14.99 -0.52,14.56 -0.47,14.12 -0.31,13.71 -0.16,13.30 0.08,12.94 0.33,12.58 0.64,12.44 0.95,12.30 1.99,11.47 3.02,10.64 4.01,10.15 4.99,9.66 6.69,9.09 8.38,8.52 9.75,8.00 11.13,7.49 12.62,6.95 14.10,6.40 15.05,5.44 16.00,4.47 17.44,1.99 18.88,-0.49 19.29,-0.45 19.70,-0.42 20.10,-0.29 20.49,-0.16 20.84,0.05 21.19,0.27 21.48,0.57 21.77,0.87 21.98,1.22 22.18,1.58 22.30,1.98 22.42,2.38 22.43,2.79 22.45,3.21 22.37,3.61 22.29,4.02 22.11,4.40 21.93,4.77 21.67,5.09 21.41,5.41 21.08,5.66 20.75,5.91 20.37,6.08 19.99,6.24 19.58,6.31 19.17,6.38 18.58,6.53 18.00,6.68 16.89,6.90 15.79,7.11 14.41,7.46 13.03,7.81 11.95,8.07 10.87,8.33 9.36,8.55 7.85,8.76 6.16,8.86 4.47,8.96 3.38,8.92 2.28,8.87 3.57,7.91 4.85,6.95 4.58,7.30 4.30,7.65 3.95,7.92 3.61,8.20 3.20,8.38 2.80,8.57 2.36,8.65 1.92,8.73 1.48,8.70 1.04,8.68 0.61,8.54 0.19,8.41 -0.18,8.18 -0.56,7.95 -0.88,7.64 -1.19,7.33 -1.42,6.95 -1.65,6.57 -1.79,6.14 -1.92,5.72 -1.95,5.28 -1.97,4.83 -1.90,4.40 -1.82,3.96 -1.63,3.55 -1.45,3.15 -1.41,2.94 -1.37,2.73 -0.03,1.54 1.30,0.35 2.65,-0.19 4.00,-0.74 5.54,-1.34 7.08,-1.94 8.36,-2.26 9.64,-2.58 11.11,-2.90 12.57,-3.21 13.68,-3.46 14.79,-3.72 15.83,-4.56 16.88,-5.41 17.68,-6.22 18.49,-7.04 20.11,-8.07 21.73,-9.11 22.96,-9.31 24.19,-9.52 25.70,-8.95 27.21,-8.38 28.37,-6.51 29.52,-4.64 30.06,-3.56 30.60,-2.47 30.71,-0.91 30.81,0.65 31.58,1.71 32.35,2.78 32.65,3.82 32.95,4.86 32.97,6.14 32.99,7.43 32.98,8.53 32.97,9.63 32.97,10.99 32.97,12.35 32.97,13.47 32.97,14.60 32.97,15.89 32.98,17.18 32.93,18.50 32.89,19.82 32.40,21.13 31.90,22.44 31.29,23.50 30.69,24.57 30.26,25.69 29.83,26.80 28.87,27.82 27.90,28.84 26.86,29.31 25.81,29.78 24.76,30.56 23.72,31.34 21.90,32.30 20.08,33.25 18.63,33.88 17.17,34.50 16.03,34.86 14.88,35.23 13.71,35.77 12.55,36.31 11.28,37.05 10.01,37.79 8.83,38.33 7.64,38.87 5.76,39.13 3.87,39.38 2.71,39.38 1.56,39.37 0.25,39.37 -1.04,39.37 -2.14,39.36 -3.24,39.35 -4.50,39.33 -5.76,39.31 -7.12,39.20 -8.48,39.09 -9.55,38.75 -10.62,38.41 -11.79,38.01 -12.95,37.60 -14.20,37.25 -15.45,36.90 -16.66,36.30 -17.86,35.70 -18.94,35.07 -20.01,34.45 -21.11,33.81 -22.21,33.16 -23.45,32.63 -24.68,32.10 -25.86,31.10 -27.05,30.11 -27.83,29.36 -28.60,28.61 -29.27,27.55 -29.94,26.50 -30.51,25.60 -31.08,24.71 -31.48,22.93 -31.87,21.16 -31.86,19.91 -31.84,18.67 -31.72,17.50 -31.59,16.32 -31.09,15.07 -30.59,13.81 -30.12,12.32 -29.64,10.83 -29.10,9.83 -28.56,8.83 -28.25,7.53 -27.94,6.23 -27.50,4.50 -27.06,2.78 -27.08,1.32 -27.10,-0.14 -27.04,-0.60 -26.98,-1.05 -26.82,-1.49 -26.66,-1.92 -26.39,-2.30 -26.13,-2.68 -25.78,-2.99 -25.44,-3.30 -25.03,-3.51 -24.62,-3.73 -24.17,-3.84 -23.72,-3.95 -23.26,-3.95 -22.79,-3.95 -22.34,-3.84 -21.90,-3.73 -21.49,-3.51 -21.08,-3.30 -20.73,-2.99 -20.38,-2.68 -20.12,-2.30 -19.86,-1.92 -19.69,-1.49 -19.53,-1.05 -19.47,-0.60 -19.42,-0.14 -19.42,0.67 -19.42,1.48 -19.42,2.57 -19.42,3.65 -19.47,4.97 -19.51,6.28 -20.05,7.91 -20.59,9.53 -20.98,10.71 -21.38,11.89 -22.26,13.36 -23.13,14.83 -23.72,15.72 -24.31,16.61 -25.04,17.43 -25.77,18.24 -24.71,19.13 -23.65,20.02 -22.58,20.24 -21.50,20.46 -21.02,19.48 -20.53,18.49 -19.51,18.07 -18.49,17.64 -16.45,17.84 -14.41,18.05 -13.45,18.79 -12.49,19.53 -11.21,20.57 -9.94,21.60 -8.85,21.84 -7.76,22.08 -6.71,21.52 -5.66,20.96 -5.00,19.75 -4.34,18.53 -4.34,17.45 -4.33,16.36 -4.33,15.28 -4.32,14.20 -4.32,13.10 -4.31,12.00 -4.31,10.66 -4.31,9.33 -4.30,8.21 -4.30,7.09 -4.38,5.99 -4.46,4.90 -4.87,3.74 -5.28,2.59 -6.38,1.04 -7.49,-0.50 -7.70,-2.40 -7.91,-4.30 -7.04,-5.91 -6.18,-7.51 -4.51,-8.29 -2.84,-9.07 -1.76,-9.05 -0.67,-9.03 0.47,-9.02 1.62,-9.00 2.95,-8.98 4.28,-8.97 5.59,-8.95 6.89,-8.92 8.10,-8.89 9.30,-8.86 10.39,-8.84 11.48,-8.81 12.66,-8.77 13.84,-8.74 15.05,-8.71 16.26,-8.69 18.24,-8.67 20.23,-8.65 21.70,-8.16 23.18,-7.68 23.83,-6.49 24.48,-5.31 24.36,-4.05 24.23,-2.79 23.85,-1.60 23.46,-0.41 21.54,0.82 19.61,2.05 18.32,1.98 17.03,1.91 15.32,2.06 13.62,2.21 12.09,2.15 10.56,2.08 8.48,2.11 6.40,2.14 4.91,2.30 3.42,2.45 1.71,2.51 0,2.56 -0.30,2.53 -0.61,2.49 -0.90,2.38 -1.19,2.27 -1.44,2.09 -1.70,1.92 -1.90,1.69 -2.11,1.45 -2.25,1.18 -2.40,0.91 -2.47,0.60 -2.54,0.30 -2.54,-0.00 -2.54,-0.30 -2.47,-0.61 -2.40,-0.91 -2.25,-1.18 -2.11,-1.45 -1.90,-1.69 -1.70,-1.92 -1.44,-2.09 -1.19,-2.27 -0.90,-2.38 -0.61,-2.49 -0.30,-2.53 0.00,-2.56 0.00,-2.56 L 0,-2.56 Z"></path></g><g transform="translate(53.252929174910264 55.83132355421151) rotate(0 0.8114422542124089 -5.139134276678931)" stroke="none"><path fill="#ffffff" d="M 0,2.57 Q 0,2.57 -0.77,2.61 -1.55,2.65 -2.59,3.00 -3.63,3.35 -4.19,3.40 -4.75,3.46 -5.10,3.43 -5.45,3.39 -5.78,3.28 -6.12,3.16 -6.41,2.97 -6.71,2.78 -6.95,2.52 -7.19,2.26 -7.37,1.95 -7.54,1.65 -7.63,1.30 -7.73,0.96 -7.74,0.61 -7.75,0.26 -7.67,-0.08 -7.60,-0.42 -7.44,-0.74 -7.29,-1.06 -7.06,-1.33 -6.83,-1.60 -6.55,-1.81 -6.26,-2.02 -5.94,-2.15 -5.61,-2.29 -5.26,-2.34 -4.91,-2.39 -3.55,-2.67 -2.18,-2.94 -1.26,-3.89 -0.33,-4.84 0.44,-5.71 1.22,-6.58 2.54,-7.35 3.85,-8.11 6.58,-7.80 9.30,-7.48 9.63,-5.46 9.96,-3.44 9.24,-2.14 8.52,-0.85 7.72,-0.02 6.92,0.80 5.08,1.82 3.25,2.83 1.97,2.23 0.69,1.63 -0.01,0.70 -0.72,-0.21 -1.08,-1.57 -1.44,-2.92 -1.91,-3.98 -2.38,-5.05 -2.74,-6.17 -3.10,-7.28 -3.14,-8.45 -3.18,-9.63 -2.34,-11.54 -1.50,-13.45 0.79,-13.60 3.09,-13.76 4.10,-13.12 5.12,-12.48 5.29,-10.80 5.47,-9.13 4.86,-7.84 4.25,-6.56 3.18,-5.51 2.10,-4.46 0.63,-3.73 -0.82,-3.00 -2.40,-3.20 -3.97,-3.40 -5.04,-4.08 -6.11,-4.76 -6.48,-5.92 -6.86,-7.07 -7.18,-8.85 -7.51,-10.64 -7.44,-11.24 -7.37,-11.84 -7.11,-12.38 -6.85,-12.93 -6.44,-13.36 -6.02,-13.80 -5.48,-14.08 -4.95,-14.36 -4.35,-14.45 -3.76,-14.54 -3.16,-14.44 -2.57,-14.34 -2.03,-14.05 -1.50,-13.77 -1.09,-13.33 -0.68,-12.89 -0.43,-12.34 -0.18,-11.79 -0.12,-11.19 -0.06,-10.59 -0.19,-10.00 -0.33,-9.41 -0.64,-8.89 -0.96,-8.38 -1.42,-7.99 -1.88,-7.60 -2.44,-7.39 -3.01,-7.17 -3.61,-7.14 -4.21,-7.11 -4.79,-7.27 -5.37,-7.44 -5.87,-7.78 -6.37,-8.12 -6.73,-8.61 -7.09,-9.09 -7.28,-9.66 -7.47,-10.24 -7.46,-10.84 -7.46,-11.44 -7.26,-12.01 -7.06,-12.59 -6.70,-13.06 -6.33,-13.54 -5.83,-13.88 -5.32,-14.21 -4.74,-14.37 -4.16,-14.53 -3.56,-14.49 -2.95,-14.45 -2.39,-14.22 -1.84,-14.00 -1.38,-13.60 -0.92,-13.21 -0.61,-12.69 -0.31,-12.17 -0.18,-11.58 -0.06,-10.99 -0.06,-10.99 -0.06,-10.99 -0.04,-9.92 -0.03,-8.85 -1.55,-9.29 -3.06,-9.73 -2.15,-10.70 -1.23,-11.67 -1.17,-10.08 -1.10,-8.49 0.58,-7.80 2.27,-7.11 2.80,-8.27 3.33,-9.42 4.18,-7.87 5.04,-6.33 5.42,-5.30 5.81,-4.28 6.09,-3.16 6.38,-2.05 4.95,-2.83 3.53,-3.61 2.43,-3.66 1.34,-3.70 2.69,-4.01 4.04,-4.31 5.82,-3.51 7.59,-2.71 6.56,-2.32 5.52,-1.93 4.62,-1.12 3.71,-0.32 3.10,0.80 2.49,1.93 0.75,2.50 -0.99,3.06 -2.87,3.26 -4.75,3.46 -5.10,3.43 -5.45,3.39 -5.78,3.28 -6.12,3.16 -6.41,2.97 -6.71,2.78 -6.95,2.52 -7.19,2.26 -7.37,1.95 -7.54,1.65 -7.63,1.30 -7.73,0.96 -7.74,0.61 -7.75,0.26 -7.67,-0.08 -7.60,-0.42 -7.44,-0.74 -7.29,-1.06 -7.06,-1.33 -6.83,-1.60 -6.55,-1.81 -6.26,-2.02 -5.94,-2.15 -5.61,-2.29 -5.26,-2.34 -4.91,-2.39 -4.73,-2.17 -4.54,-1.94 -3.05,-2.30 -1.55,-2.65 -0.77,-2.61 0,-2.57 0.30,-2.53 0.61,-2.49 0.90,-2.38 1.19,-2.27 1.44,-2.09 1.70,-1.92 1.90,-1.69 2.11,-1.46 2.25,-1.18 2.40,-0.91 2.47,-0.61 2.55,-0.30 2.55,0.00 2.55,0.30 2.47,0.61 2.40,0.91 2.25,1.18 2.11,1.46 1.90,1.69 1.70,1.92 1.44,2.10 1.19,2.27 0.90,2.38 0.61,2.49 0.30,2.53 -0.00,2.57 -0.00,2.57 L 0,2.57 Z"></path></g><g transform="translate(47.84331414682708 40.143439972770466) rotate(0 0.00004999999998744897 0.00004999999998744897)" stroke="none"><path fill="#ffffff" d="M 1.57,-1.57 Q 1.57,-1.57 1.77,-1.27 1.98,-0.98 2.09,-0.64 2.20,-0.29 2.19,0.05 2.18,0.41 2.05,0.75 1.93,1.09 1.70,1.37 1.48,1.65 1.18,1.84 0.87,2.04 0.52,2.12 0.18,2.21 -0.17,2.18 -0.53,2.15 -0.86,2.01 -1.19,1.87 -1.46,1.63 -1.73,1.39 -1.90,1.07 -2.08,0.76 -2.15,0.41 -2.21,0.05 -2.17,-0.29 -2.12,-0.65 -1.96,-0.97 -1.80,-1.29 -1.54,-1.54 -1.29,-1.80 -0.97,-1.96 -0.65,-2.12 -0.29,-2.17 0.06,-2.21 0.41,-2.15 0.76,-2.08 1.07,-1.90 1.39,-1.73 1.63,-1.46 1.87,-1.19 2.01,-0.86 2.15,-0.53 2.18,-0.17 2.21,0.18 2.12,0.52 2.03,0.87 1.84,1.18 1.65,1.48 1.37,1.70 1.09,1.93 0.75,2.05 0.41,2.18 0.05,2.19 -0.30,2.20 -0.64,2.09 -0.98,1.98 -1.27,1.77 -1.57,1.56 -1.57,1.57 -1.57,1.57 -1.73,1.35 -1.90,1.14 -2.01,0.90 -2.12,0.66 -2.16,0.39 -2.21,0.13 -2.20,-0.13 -2.18,-0.40 -2.10,-0.65 -2.02,-0.91 -1.88,-1.14 -1.74,-1.36 -1.55,-1.55 -1.36,-1.74 -1.14,-1.88 -0.91,-2.02 -0.65,-2.10 -0.40,-2.18 -0.13,-2.20 0.13,-2.21 0.39,-2.16 0.66,-2.12 0.90,-2.01 1.14,-1.90 1.35,-1.73 1.57,-1.57 1.57,-1.57 L 1.57,-1.57 Z"></path></g><g transform="translate(39.18793010189415 42.30728598400367) rotate(0 -1.8933652598291246 2.7048075140415904)" stroke="none"><path d="M0 0 C0 0.36, 0.63 1.26, 0 2.16 C-0.63 3.07, -3.16 4.87, -3.79 5.41" stroke="none" stroke-width="0" fill="#868e96" fill-rule="evenodd"></path><path fill="#ffffff" d="M 2.45,0.61 Q 2.45,0.61 2.34,1.24 2.23,1.87 1.70,3.08 1.17,4.28 -0.80,6.20 -2.78,8.12 -3.24,8.21 -3.70,8.30 -4.17,8.24 -4.63,8.17 -5.05,7.96 -5.47,7.76 -5.80,7.42 -6.13,7.09 -6.34,6.67 -6.55,6.25 -6.61,5.79 -6.68,5.32 -6.59,4.86 -6.50,4.40 -6.27,4.00 -6.04,3.59 -5.69,3.28 -5.34,2.96 -4.91,2.78 -4.48,2.59 -4.01,2.56 -3.54,2.52 -3.09,2.63 -2.64,2.75 -2.24,3.00 -1.85,3.25 -1.55,3.62 -1.26,3.98 -1.10,4.42 -0.94,4.86 -0.92,5.33 -0.91,5.80 -1.05,6.25 -1.19,6.69 -1.46,7.07 -1.74,7.45 -2.12,7.73 -2.50,8.00 -2.94,8.14 -3.39,8.27 -3.86,8.26 -4.33,8.25 -4.77,8.09 -5.21,7.92 -5.57,7.63 -5.94,7.34 -6.19,6.94 -6.44,6.55 -6.56,6.09 -6.67,5.64 -6.63,5.17 -6.59,4.70 -6.41,4.27 -6.22,3.84 -5.91,3.49 -5.59,3.15 -5.19,2.92 -4.78,2.69 -4.78,2.69 -4.78,2.69 -4.47,2.56 -4.16,2.43 -3.51,1.52 -2.85,0.60 -2.65,-0.00 -2.45,-0.61 -2.34,-0.89 -2.23,-1.18 -2.06,-1.43 -1.88,-1.68 -1.65,-1.88 -1.42,-2.08 -1.15,-2.22 -0.88,-2.36 -0.59,-2.43 -0.29,-2.51 0.00,-2.51 0.31,-2.50 0.60,-2.43 0.90,-2.36 1.17,-2.21 1.44,-2.07 1.67,-1.87 1.89,-1.67 2.07,-1.41 2.24,-1.16 2.35,-0.88 2.45,-0.59 2.49,-0.29 2.52,0.00 2.49,0.31 2.45,0.61 2.45,0.61 L 2.45,0.61 Z"></path></g><g transform="translate(61.908313219843194 49.33978552051178) rotate(0 0.00004999999998744897 0.00004999999998744897)" stroke="none"><path fill="#ffffff" d="M 1.57,-1.57 Q 1.57,-1.57 1.77,-1.27 1.98,-0.98 2.09,-0.64 2.20,-0.29 2.19,0.05 2.18,0.41 2.05,0.75 1.93,1.09 1.70,1.37 1.48,1.65 1.18,1.84 0.87,2.04 0.52,2.12 0.18,2.21 -0.17,2.18 -0.53,2.15 -0.86,2.01 -1.19,1.87 -1.46,1.63 -1.73,1.39 -1.90,1.07 -2.08,0.76 -2.15,0.41 -2.21,0.05 -2.17,-0.29 -2.12,-0.65 -1.96,-0.97 -1.80,-1.29 -1.54,-1.54 -1.29,-1.80 -0.97,-1.96 -0.65,-2.12 -0.29,-2.17 0.06,-2.21 0.41,-2.15 0.76,-2.08 1.07,-1.90 1.39,-1.73 1.63,-1.46 1.87,-1.19 2.01,-0.86 2.15,-0.53 2.18,-0.17 2.21,0.18 2.12,0.52 2.03,0.87 1.84,1.18 1.65,1.48 1.37,1.70 1.09,1.93 0.75,2.05 0.41,2.18 0.05,2.19 -0.30,2.20 -0.64,2.09 -0.98,1.98 -1.27,1.77 -1.57,1.56 -1.57,1.57 -1.57,1.57 -1.73,1.35 -1.90,1.14 -2.01,0.90 -2.12,0.66 -2.16,0.39 -2.21,0.13 -2.20,-0.13 -2.18,-0.40 -2.10,-0.65 -2.02,-0.91 -1.88,-1.14 -1.74,-1.36 -1.55,-1.55 -1.36,-1.74 -1.14,-1.88 -0.91,-2.02 -0.65,-2.10 -0.40,-2.18 -0.13,-2.20 0.13,-2.21 0.39,-2.16 0.66,-2.12 0.90,-2.01 1.14,-1.90 1.35,-1.73 1.57,-1.57 1.57,-1.57 L 1.57,-1.57 Z"></path></g></svg>