<svg version="1.1" xmlns="http://www.w3.org/2000/svg" viewBox="0 0 116.22859514659604 93.03021742016077" width="116.22859514659604" height="93.03021742016077">
  <!-- svg-source:excalidraw -->
  
  <defs>
    <style class="style-fonts">
      @font-face {
        font-family: "Virgil";
        src: url("https://excalidraw.com/Virgil.woff2");
      }
      @font-face {
        font-family: "Cascadia";
        src: url("https://excalidraw.com/Cascadia.woff2");
      }
      @font-face {
        font-family: "Assistant";
        src: url("https://excalidraw.com/Assistant-Regular.woff2");
      }
    </style>
    
  </defs>
  <g stroke-linecap="round" transform="translate(29.34690817655064 22.49291962923482) rotate(0 29 25.5)"><path d="M40.26 2.62 C46.07 4.19, 52.21 7.64, 55.11 12.27 C58.02 16.9, 58.83 24.74, 57.67 30.39 C56.5 36.04, 53.06 42.75, 48.13 46.18 C43.2 49.6, 34.51 51.2, 28.08 50.95 C21.64 50.7, 14.02 48.26, 9.52 44.68 C5.02 41.1, 2.13 34.69, 1.08 29.46 C0.02 24.24, -0.02 18.04, 3.17 13.32 C6.37 8.6, 13.39 2.6, 20.26 1.14 C27.13 -0.32, 39.4 3.38, 44.4 4.59 C49.4 5.79, 50.47 8.14, 50.28 8.38 M34.01 0.24 C39.91 1.21, 46.2 5.94, 50.15 10.18 C54.09 14.43, 57.54 20.3, 57.7 25.71 C57.86 31.12, 54.79 38.44, 51.09 42.64 C47.39 46.84, 41.72 49.84, 35.48 50.89 C29.24 51.95, 19.21 51.73, 13.64 48.98 C8.07 46.24, 3.84 39.75, 2.06 34.4 C0.27 29.05, 0.74 21.96, 2.94 16.87 C5.14 11.79, 9.91 6.41, 15.26 3.9 C20.62 1.39, 31.99 2.1, 35.06 1.82 C38.13 1.54, 33.95 1.82, 33.67 2.22" stroke="none" stroke-width="0" fill="#ffd43b"></path><path d="M22.4 -0.03 C28.07 -1.69, 37.34 -0.34, 42.8 2.18 C48.27 4.7, 52.82 10.07, 55.17 15.1 C57.52 20.13, 58.68 27.14, 56.9 32.36 C55.13 37.57, 49.81 43.21, 44.53 46.39 C39.24 49.57, 31.23 52.04, 25.19 51.46 C19.16 50.87, 12.41 46.94, 8.32 42.9 C4.24 38.86, 0.94 32.62, 0.68 27.23 C0.41 21.85, 2.57 15.14, 6.75 10.59 C10.92 6.04, 21.97 1.74, 25.74 -0.05 C29.51 -1.84, 29.41 -0.68, 29.37 -0.13 M41.44 2.69 C47.03 4.03, 51.76 8.19, 54.54 12.78 C57.32 17.37, 59.39 24.51, 58.12 30.24 C56.85 35.97, 52.26 43.66, 46.91 47.15 C41.55 50.64, 32.34 51.92, 25.99 51.18 C19.64 50.45, 13.18 46.7, 8.8 42.76 C4.43 38.81, 0.28 32.85, -0.26 27.5 C-0.8 22.16, 2.15 15.24, 5.56 10.7 C8.97 6.16, 14.27 1.72, 20.2 0.26 C26.14 -1.19, 38.01 1.5, 41.18 1.97 C44.35 2.43, 39.53 2.55, 39.21 3.06" stroke="#1e1e1e" stroke-width="2" fill="none"></path></g><g stroke-linecap="round"><g transform="translate(81.34690817655064 29.49291962923482) rotate(0 6 -3.5)"><path d="M-0.25 0.3 C1.76 -0.85, 10.3 -5.92, 12.28 -7.09 M0.63 -0.02 C2.57 -1.07, 9.97 -5.17, 12 -6.43" stroke="#1e1e1e" stroke-width="2" fill="none"></path></g></g><mask></mask><g stroke-linecap="round"><g transform="translate(51.34690817655064 22.49291962923482) rotate(0 -2 -6)"><path d="M0.28 -0.09 C-0.4 -2.08, -3.6 -9.65, -4.37 -11.69 M-0.24 -0.61 C-0.73 -2.79, -2.83 -10.62, -3.32 -12.49" stroke="#1e1e1e" stroke-width="2" fill="none"></path></g></g><mask></mask><g stroke-linecap="round"><g transform="translate(34.34690817655064 32.49291962923482) rotate(0 -12 -1)"><path d="M-0.37 0.31 C-4.47 -0.06, -20.36 -1.94, -24.35 -2.3 M0.45 0 C-3.51 -0.3, -19.09 -1.56, -23.29 -1.76" stroke="#1e1e1e" stroke-width="2" fill="none"></path></g></g><mask></mask><g stroke-linecap="round"><g transform="translate(34.34690817655064 57.49291962923482) rotate(0 -7.5 4.5)"><path d="M-0.35 -0.3 C-2.83 1.16, -12.77 7.57, -15.28 9.11 M0.48 0.73 C-1.8 1.99, -11.73 6.75, -14.19 8.2" stroke="#1e1e1e" stroke-width="2" fill="none"></path></g></g><mask></mask><g stroke-linecap="round"><g transform="translate(50.34690817655064 70.49291962923482) rotate(0 -4 6)"><path d="M-0.28 0.11 C-1.61 2.14, -7.03 9.93, -8.37 11.89 M0.58 -0.31 C-0.55 1.83, -5.76 10.41, -7.32 12.53" stroke="#1e1e1e" stroke-width="2" fill="none"></path></g></g><mask></mask><g stroke-linecap="round"><g transform="translate(75.34690817655064 69.49291962923482) rotate(0 1.5 6.5)"><path d="M-0.37 -0.11 C0.13 2.02, 2.09 10.65, 2.71 12.89 M0.45 -0.64 C1.15 1.56, 3.33 11.36, 3.79 13.54" stroke="#1e1e1e" stroke-width="2" fill="none"></path></g></g><mask></mask><g stroke-linecap="round"><g transform="translate(88.76809103359801 46.97267536345706) rotate(0 8.5 1)"><path d="M0.45 0.52 C3.35 0.84, 14.71 1.86, 17.46 2.19 M0.01 0.31 C2.89 0.45, 14.51 1.1, 17.27 1.33" stroke="#1e1e1e" stroke-width="2" fill="none"></path></g></g><mask></mask></svg>