<svg width="199" height="87" viewBox="0 0 199 87" fill="none" xmlns="http://www.w3.org/2000/svg">
<g filter="url(#filter0_d_4_44)">
<path d="M178.723 38.3573L161.535 22.4543C160.139 21.1628 158 22.4161 158 25.6105V57.4088C158 60.2745 159.987 62.0016 161.535 60.5649L178.723 44.6696C180.256 43.2558 180.261 39.7711 178.723 38.3573Z" fill="#BD182C"/>
</g>
<g filter="url(#filter1_d_4_44)">
<path d="M193.723 38.3573L176.535 22.4543C175.139 21.1628 173 22.4161 173 25.6105V57.4088C173 60.2745 174.987 62.0016 176.535 60.5649L193.723 44.6696C195.256 43.2558 195.261 39.7711 193.723 38.3573Z" fill="#EF233C"/>
</g>
<g filter="url(#filter2_d_4_44)">
<path d="M20.8438 62.0703L17.5391 58.7188C16.3672 59.2188 15.1641 59.4688 13.9297 59.4688C12.2266 59.4688 10.6641 59.0391 9.24219 58.1797C7.80469 57.3203 6.64844 56.1562 5.77344 54.6875C4.91406 53.2031 4.48438 51.5859 4.48438 49.8359L4.53125 34.625C4.53125 32.9219 4.95312 31.3438 5.79688 29.8906C6.625 28.4375 7.75 27.2734 9.17188 26.3984C10.5938 25.5078 12.1797 25.0625 13.9297 25.0625C15.6328 25.0625 17.1953 25.4844 18.6172 26.3281C20.0391 27.1875 21.1719 28.3359 22.0156 29.7734C22.875 31.2109 23.3047 32.8281 23.3047 34.625L23.3516 49.8359C23.3516 50.7578 23.2188 51.6562 22.9531 52.5312C22.7031 53.3906 22.3672 54.1875 21.9453 54.9219L24.9219 57.9453C25.0781 58.0703 25.0938 58.1797 24.9688 58.2734L21.1953 62.0703C21.0859 62.1641 20.9688 62.1641 20.8438 62.0703ZM13.9297 53.6797C15.0234 53.6797 15.8984 53.2734 16.5547 52.4609C17.2109 51.6328 17.5391 50.7578 17.5391 49.8359L17.4922 34.625C17.4922 33.5938 17.1562 32.7031 16.4844 31.9531C15.8125 31.2031 14.9609 30.8281 13.9297 30.8281C12.8516 30.8281 11.9844 31.2109 11.3281 31.9766C10.6719 32.7422 10.3438 33.625 10.3438 34.625V49.8359C10.3438 50.9922 10.7188 51.9219 11.4688 52.625C12.2188 53.3281 13.0391 53.6797 13.9297 53.6797ZM34.4531 59.3906C33.0469 59.3906 31.7448 59.026 30.5469 58.2969C29.349 57.5677 28.3919 56.5911 27.6758 55.3672C26.9727 54.1302 26.6211 52.7826 26.6211 51.3242L26.6992 31.3242C26.6992 31.2201 26.7513 31.168 26.8555 31.168H31.3477C31.4518 31.168 31.5039 31.2201 31.5039 31.3242V51.3242C31.5039 52.2227 31.7904 52.9909 32.3633 53.6289C32.9362 54.2539 33.6328 54.5664 34.4531 54.5664C35.3125 54.5664 36.0286 54.2539 36.6016 53.6289C37.1745 52.9909 37.4609 52.2227 37.4609 51.3242V31.3242C37.4609 31.2201 37.513 31.168 37.6172 31.168H42.1094C42.2135 31.168 42.2656 31.2201 42.2656 31.3242L42.3438 51.3242C42.3438 52.7956 41.9922 54.1497 41.2891 55.3867C40.5729 56.6107 39.6224 57.5872 38.4375 58.3164C37.2526 59.0326 35.9245 59.3906 34.4531 59.3906ZM50.2148 59H45.6836C45.5534 59 45.4883 58.9349 45.4883 58.8047L45.5273 31.3242C45.5273 31.2201 45.5794 31.168 45.6836 31.168H50.1758C50.2799 31.168 50.332 31.2201 50.332 31.3242L50.3711 58.8047C50.3711 58.9349 50.319 59 50.2148 59ZM61.25 59.3906C59.8047 59.3906 58.4831 59.026 57.2852 58.2969C56.1003 57.5677 55.1562 56.5911 54.4531 55.3672C53.763 54.1302 53.418 52.7565 53.418 51.2461L53.457 38.7656C53.457 37.2812 53.7956 35.9401 54.4727 34.7422C55.1497 33.5312 56.0807 32.5612 57.2656 31.832C58.4635 31.0898 59.7917 30.7188 61.25 30.7188C62.7344 30.7188 64.056 31.0768 65.2148 31.793C66.3867 32.5091 67.3177 33.4792 68.0078 34.7031C68.7109 35.9141 69.0625 37.2682 69.0625 38.7656V40.6016C69.0625 40.7057 69.0104 40.7578 68.9062 40.7578H64.4141C64.3099 40.7578 64.2578 40.7057 64.2578 40.6016V38.7656C64.2578 37.8802 63.9714 37.1185 63.3984 36.4805C62.8255 35.8424 62.1094 35.5234 61.25 35.5234C60.2995 35.5234 59.5703 35.849 59.0625 36.5C58.5547 37.151 58.3008 37.9062 58.3008 38.7656V51.2461C58.3008 52.2227 58.5872 53.0234 59.1602 53.6484C59.7331 54.2604 60.4297 54.5664 61.25 54.5664C62.1094 54.5664 62.8255 54.2279 63.3984 53.5508C63.9714 52.8607 64.2578 52.0924 64.2578 51.2461V49.3906C64.2578 49.2865 64.3099 49.2344 64.4141 49.2344H68.9453C69.0495 49.2344 69.1016 49.2865 69.1016 49.3906V51.2461C69.1016 52.7435 68.75 54.1107 68.0469 55.3477C67.3307 56.5716 66.3867 57.5547 65.2148 58.2969C64.043 59.026 62.7214 59.3906 61.25 59.3906ZM76.6992 59H72.168C72.0638 59 72.0117 58.9349 72.0117 58.8047L72.0898 31.3633C72.0898 31.2331 72.1419 31.168 72.2461 31.168H76.7383C76.8424 31.168 76.8945 31.2331 76.8945 31.3633V40.8359L83.1641 31.3242C83.2682 31.2201 83.3659 31.168 83.457 31.168H88.0469C88.1641 31.168 88.1901 31.2201 88.125 31.3242L81.2109 42.3594L88.9648 58.8438C89.0299 58.9479 88.9648 59 88.7695 59H83.8867C83.7565 59 83.6784 58.9479 83.6523 58.8438L78.2422 47.0859L76.8555 49.2734V58.8047C76.8555 58.9349 76.8034 59 76.6992 59ZM96.7031 59H91.3125C91.1562 59 91.0781 58.9219 91.0781 58.7656L91.1719 25.7891C91.1719 25.6641 91.2344 25.6016 91.3594 25.6016H106.734C106.891 25.6016 106.969 25.6641 106.969 25.7891V31.2031C106.969 31.3281 106.906 31.3906 106.781 31.3906H96.9375V38.8438H106.781C106.906 38.8438 106.969 38.9219 106.969 39.0781L107.016 44.5156C107.016 44.6406 106.938 44.7031 106.781 44.7031H96.9375V58.7656C96.9375 58.9219 96.8594 59 96.7031 59ZM124.051 59H111.121C111.017 59 110.965 58.9349 110.965 58.8047L111.004 31.3633C111.004 31.2331 111.069 31.168 111.199 31.168H115.652C115.783 31.168 115.848 31.2331 115.848 31.3633L115.809 54.0781H124.051C124.181 54.0781 124.246 54.1432 124.246 54.2734V58.8047C124.246 58.9349 124.181 59 124.051 59ZM131.59 59H127.059C126.928 59 126.863 58.9349 126.863 58.8047L126.902 31.3242C126.902 31.2201 126.954 31.168 127.059 31.168H131.551C131.655 31.168 131.707 31.2201 131.707 31.3242L131.746 58.8047C131.746 58.9349 131.694 59 131.59 59ZM138.523 59H134.031C133.94 59 133.901 58.9349 133.914 58.8047L138.484 44.5273L133.992 31.3242C133.966 31.2201 134.005 31.168 134.109 31.168H138.602C138.732 31.168 138.81 31.2201 138.836 31.3242L141.512 40.8359L144.227 31.3242C144.253 31.2201 144.337 31.168 144.48 31.168H148.914C149.018 31.168 149.057 31.2201 149.031 31.3242L144.559 44.4883L149.07 58.8047C149.122 58.9349 149.083 59 148.953 59H144.48C144.363 59 144.279 58.9349 144.227 58.8047L141.512 48.4727L138.758 58.8047C138.745 58.9349 138.667 59 138.523 59Z" fill="#EF233C"/>
</g>
<defs>
<filter id="filter0_d_4_44" x="154" y="21.9524" width="29.8744" height="47.1286" filterUnits="userSpaceOnUse" color-interpolation-filters="sRGB">
<feFlood flood-opacity="0" result="BackgroundImageFix"/>
<feColorMatrix in="SourceAlpha" type="matrix" values="0 0 0 0 0 0 0 0 0 0 0 0 0 0 0 0 0 0 127 0" result="hardAlpha"/>
<feOffset dy="4"/>
<feGaussianBlur stdDeviation="2"/>
<feComposite in2="hardAlpha" operator="out"/>
<feColorMatrix type="matrix" values="0 0 0 0 0 0 0 0 0 0 0 0 0 0 0 0 0 0 0.5 0"/>
<feBlend mode="normal" in2="BackgroundImageFix" result="effect1_dropShadow_4_44"/>
<feBlend mode="normal" in="SourceGraphic" in2="effect1_dropShadow_4_44" result="shape"/>
</filter>
<filter id="filter1_d_4_44" x="169" y="21.9524" width="29.8744" height="47.1286" filterUnits="userSpaceOnUse" color-interpolation-filters="sRGB">
<feFlood flood-opacity="0" result="BackgroundImageFix"/>
<feColorMatrix in="SourceAlpha" type="matrix" values="0 0 0 0 0 0 0 0 0 0 0 0 0 0 0 0 0 0 127 0" result="hardAlpha"/>
<feOffset dy="4"/>
<feGaussianBlur stdDeviation="2"/>
<feComposite in2="hardAlpha" operator="out"/>
<feColorMatrix type="matrix" values="0 0 0 0 0 0 0 0 0 0 0 0 0 0 0 0 0 0 0.5 0"/>
<feBlend mode="normal" in2="BackgroundImageFix" result="effect1_dropShadow_4_44"/>
<feBlend mode="normal" in="SourceGraphic" in2="effect1_dropShadow_4_44" result="shape"/>
</filter>
<filter id="filter2_d_4_44" x="0.484375" y="25.0625" width="152.664" height="45.1484" filterUnits="userSpaceOnUse" color-interpolation-filters="sRGB">
<feFlood flood-opacity="0" result="BackgroundImageFix"/>
<feColorMatrix in="SourceAlpha" type="matrix" values="0 0 0 0 0 0 0 0 0 0 0 0 0 0 0 0 0 0 127 0" result="hardAlpha"/>
<feOffset dy="4"/>
<feGaussianBlur stdDeviation="2"/>
<feComposite in2="hardAlpha" operator="out"/>
<feColorMatrix type="matrix" values="0 0 0 0 0 0 0 0 0 0 0 0 0 0 0 0 0 0 0.5 0"/>
<feBlend mode="normal" in2="BackgroundImageFix" result="effect1_dropShadow_4_44"/>
<feBlend mode="normal" in="SourceGraphic" in2="effect1_dropShadow_4_44" result="shape"/>
</filter>
</defs>
</svg>
