<?xml version="1.0" standalone="no"?>
<!DOCTYPE svg PUBLIC "-//W3C//DTD SVG 20010904//EN"
 "http://www.w3.org/TR/2001/REC-SVG-20010904/DTD/svg10.dtd">
<svg version="1.0" xmlns="http://www.w3.org/2000/svg"
 width="266.000000pt" height="189.000000pt" viewBox="0 0 266.000000 189.000000"
 preserveAspectRatio="xMidYMid meet">

<g transform="translate(0.000000,189.000000) scale(0.100000,-0.100000)"
fill="#000000" stroke="none">
<path d="M2386 1710 c-104 -83 -251 -196 -327 -251 -76 -55 -141 -105 -145
-110 -4 -6 -16 -1 -30 12 -30 28 -42 18 -20 -17 17 -24 17 -27 -1 -47 -10 -11
-13 -17 -7 -14 7 4 19 -5 29 -19 27 -42 2 -72 -34 -40 -14 13 -27 7 -114 -54
-53 -38 -97 -67 -97 -65 0 3 42 36 94 75 52 39 97 77 99 84 3 8 -47 -26 -111
-73 -471 -352 -1134 -759 -1607 -988 -87 -42 -95 -48 -74 -56 47 -17 112 5
318 108 425 213 1096 625 1466 900 50 37 95 69 102 72 7 3 24 -5 39 -16 34
-27 41 -21 18 14 -16 25 -16 28 -2 36 15 8 287 220 546 424 61 48 112 93 112
98 0 17 -41 77 -53 77 -7 0 -97 -68 -201 -150z m84 -20 c0 -5 -2 -10 -4 -10
-3 0 -8 5 -11 10 -3 6 -1 10 4 10 6 0 11 -4 11 -10z m-76 -56 c3 -8 2 -12 -4
-9 -6 3 -10 10 -10 16 0 14 7 11 14 -7z m-74 -54 c0 -5 -2 -10 -4 -10 -3 0 -8
5 -11 10 -3 6 -1 10 4 10 6 0 11 -4 11 -10z m-70 -60 c0 -5 -2 -10 -4 -10 -3
0 -8 5 -11 10 -3 6 -1 10 4 10 6 0 11 -4 11 -10z m-70 -60 c0 -5 -2 -10 -4
-10 -3 0 -8 5 -11 10 -3 6 -1 10 4 10 6 0 11 -4 11 -10z m-30 -24 c0 -3 -4 -8
-10 -11 -5 -3 -10 -1 -10 4 0 6 5 11 10 11 6 0 10 -2 10 -4z m-50 -32 c0 -8
-5 -12 -10 -9 -6 4 -8 11 -5 16 9 14 15 11 15 -7z m-1360 -888 c0 -13 -548
-312 -556 -303 -2 2 69 43 159 90 89 47 214 115 277 151 122 69 120 68 120 62z"/>
<path d="M2321 1367 c-24 -19 -50 -33 -57 -30 -7 2 -41 -24 -76 -59 -35 -35
-99 -88 -142 -118 -43 -30 -114 -85 -158 -123 -213 -179 -845 -592 -1316 -857
-61 -35 -112 -70 -112 -78 0 -21 28 -69 43 -75 13 -5 177 84 422 228 269 158
695 435 930 605 66 48 152 108 190 135 39 26 77 54 85 62 8 8 29 24 46 36 69
48 254 210 254 221 0 7 -15 30 -32 50 l-33 38 -44 -35z m-446 -407 c-3 -5 -1
-10 5 -10 6 0 8 -4 5 -10 -10 -16 -21 -11 -22 10 -1 11 3 20 8 20 6 0 7 -4 4
-10z m-39 -45 c-3 -8 -11 -15 -18 -14 -10 0 -10 2 0 6 6 2 12 14 13 26 0 12 3
16 6 9 3 -7 2 -19 -1 -27z m-39 -27 c-3 -8 -6 -5 -6 6 -1 11 2 17 5 13 3 -3 4
-12 1 -19z m-154 -82 c-10 -13 -20 -22 -22 -20 -4 4 29 44 36 44 2 0 -4 -11
-14 -24z"/>
</g>
</svg>
